<?xml version="1.0" encoding="utf-8"?>
<!-- Generator: Adobe Illustrator 21.0.0, SVG Export Plug-In . SVG Version: 6.00 Build 0)  -->
<svg version="1.1" id="logo-hksoft" xmlns="http://www.w3.org/2000/svg" xmlns:xlink="http://www.w3.org/1999/xlink" x="0px"
	 y="0px" viewBox="0 0 1800 700" style="enable-background:new 0 0 1800 700;" xml:space="preserve">
<style type="text/css">
	.st0{display:none;}
	.st1{display:inline;fill:#424242;}
	.st2{display:inline;}
	.st3{fill:#24B8EB;}
	.st4{display:inline;fill:#25BCBD;}
	.st5{display:inline;fill:none;}
	.st6{fill:#FFFFFF;}
	.st7{display:inline;fill:#FFFFFF;}
	.st8{fill-rule:evenodd;clip-rule:evenodd;fill:#36B9E6;}
	.st9{fill-rule:evenodd;clip-rule:evenodd;fill:#FEF135;}
	.st10{display:none;fill-rule:evenodd;clip-rule:evenodd;fill:#2B3F52;}
	.st11{fill-rule:evenodd;clip-rule:evenodd;fill:#E31F79;}
	.st12{fill:#EA0B8B;}
	.st13{fill:#FFCC08;}
	.st14{fill:#EAF7F9;}
	.st15{fill:#E1F3FB;}
	.st16{fill:#E4F0FB;}
	.st17{fill:#E9E6F2;}
	.st18{fill:#F3EAF4;}
	.st19{fill:#FAE8F0;}
	.st20{fill:#FCEAF2;}
	.st21{fill:#FCE9E0;}
	.st22{fill:#FDF9F0;}
	.st23{fill:#FFFFFA;}
	.st24{fill:#FCFBEE;}
	.st25{fill:#F5F8EB;}
	.st26{fill:#E9F2D8;}
	.st27{fill:#D6E7C3;}
	.st28{fill:#C0DAA5;}
	.st29{fill:#A8CE89;}
	.st30{fill:#73B553;}
	.st31{fill:#91C26E;}
	.st32{fill:#4FAD3A;}
	.st33{fill:#23A12D;}
	.st34{fill:#E1F4F7;}
	.st35{fill:#CDE5E9;}
	.st36{fill:#B7DEDF;}
	.st37{fill:#96D4CE;}
	.st38{fill:#83C9C6;}
	.st39{fill:#49BAB6;}
	.st40{fill:#0FAEA7;}
	.st41{fill:#00A49B;}
	.st42{fill:#D4EEFA;}
	.st43{fill:#C1E6F8;}
	.st44{fill:#ADDEF3;}
	.st45{fill:#99D7F2;}
	.st46{fill:#80CDEE;}
	.st47{fill:#62C2EA;}
	.st48{fill:#36B9E6;}
	.st49{fill:#03AFE3;}
	.st50{fill:#D9EAF9;}
	.st51{fill:#BAD4ED;}
	.st52{fill:#9DC1E3;}
	.st53{fill:#77ABD9;}
	.st54{fill:#4F97C9;}
	.st55{fill:#1F86C3;}
	.st56{fill:#0077BA;}
	.st57{fill:#026BB3;}
	.st58{fill:#DFDBED;}
	.st59{fill:#C7BFDE;}
	.st60{fill:#B1A7CD;}
	.st61{fill:#9A8CBD;}
	.st62{fill:#8773AE;}
	.st63{fill:#715C9F;}
	.st64{fill:#5D4794;}
	.st65{fill:#48328A;}
	.st66{fill:#EEE1EF;}
	.st67{fill:#DCC6DF;}
	.st68{fill:#CBAED0;}
	.st69{fill:#BB93C1;}
	.st70{fill:#AA79AF;}
	.st71{fill:#9A62A0;}
	.st72{fill:#8B4792;}
	.st73{fill:#7E2B87;}
	.st74{fill:#F8DEE9;}
	.st75{fill:#F3C4D8;}
	.st76{fill:#E8A8C1;}
	.st77{fill:#DC8BAA;}
	.st78{fill:#D16C95;}
	.st79{fill:#C64D80;}
	.st80{fill:#BD226E;}
	.st81{fill:#B30963;}
	.st82{fill:#FBE1ED;}
	.st83{fill:#F7C9DC;}
	.st84{fill:#F5AECD;}
	.st85{fill:#EF92B5;}
	.st86{fill:#EB74A2;}
	.st87{fill:#E34E8B;}
	.st88{fill:#E31F79;}
	.st89{fill:#E10070;}
	.st90{fill:#F8F7DC;}
	.st91{fill:#F4F3CB;}
	.st92{fill:#EDEBA8;}
	.st93{fill:#E4E68B;}
	.st94{fill:#D8DE6B;}
	.st95{fill:#CED74B;}
	.st96{fill:#C2D21D;}
	.st97{fill:#B8CB03;}
	.st98{fill:#FFFEF2;}
	.st99{fill:#FFFDE6;}
	.st100{fill:#FFFBCC;}
	.st101{fill:#FFFAB3;}
	.st102{fill:#FFF89A;}
	.st103{fill:#FEF467;}
	.st104{fill:#FEF135;}
	.st105{fill:#FEED02;}
	.st106{fill:#FFF7DF;}
	.st107{fill:#FFE3BD;}
	.st108{fill:#FBCF9C;}
	.st109{fill:#F8B97B;}
	.st110{fill:#F5A45E;}
	.st111{fill:#F18D3D;}
	.st112{fill:#EC761C;}
	.st113{fill:#E95F0F;}
	.st114{fill:#FADBCC;}
	.st115{fill:#F7C2A9;}
	.st116{fill:#F5A789;}
	.st117{fill:#F18C6A;}
	.st118{fill:#EB6F4D;}
	.st119{fill:#E74E36;}
	.st120{fill:#E22123;}
	.st121{fill:#DE011C;}
</style>
<g id="text_1_" class="st0">
	<path class="st1" d="M831.5,337.2c0,1.9-0.3,4.7-0.8,8.6c-0.5,3.8-1.1,7.9-1.7,12.3c-0.7,4.3-1.4,8.6-2.2,12.9
		c-0.8,4.3-1.6,7.9-2.3,10.7l-25.8,121.8h-36l27.1-130.2c0.6-2.3,1.2-5,1.7-8c0.6-3,1.1-6.1,1.5-9.1c0.4-3,0.8-5.8,1.1-8.4
		c0.3-2.5,0.4-4.5,0.4-6c0-11.3-2.6-20-7.7-26.3c-5.1-6.2-13.1-9.3-23.8-9.3c-9.3,0-18.5,2.7-27.8,8.1c-9.3,5.4-17.9,12.4-25.8,21.1
		c-8,8.6-14.9,18.2-20.7,28.9c-5.9,10.6-10,21.2-12.3,31.6l-23.2,107.7h-36l70.3-329.1h35.6l-33.9,158.9h0.9
		c5.4-8.2,11.2-15.9,17.6-22.9c6.4-7,13.1-13.1,20.3-18.2c7.2-5.1,14.7-9.2,22.6-12c7.9-2.9,16-4.3,24.4-4.3
		c18.5,0,32.6,5.5,42.1,16.4C826.8,303.1,831.5,318.1,831.5,337.2z"/>
	<path class="st1" d="M962.4,383.9l78.6,119.6h-41.2l-72.9-117.4H926l-25,117.4h-36l70.3-329.1h35.6l-42.8,201h0.9l110.7-94.2h46.2
		L962.4,383.9z"/>
	<g class="st2">
		<path class="st3" d="M1229.7,316.3c-6.5-4.2-13.8-7.6-21.9-10.2c-8.1-2.6-16.2-3.9-24.3-3.9c-13.6,0-24.1,3.1-31.6,9.3
			c-7.5,6.2-11.2,14.5-11.2,24.7c0,4.2,0.7,8,2.1,11.5c1.4,3.5,3.4,6.8,6.1,9.9c2.7,3.1,6.1,6.1,10.2,9c4.1,2.9,8.9,6,14.2,9.3
			c16.2,9.4,27.9,19.1,35.1,29c7.2,9.9,10.7,21.1,10.7,33.5c0,8.4-1.6,16.6-4.7,24.6c-3.1,8-8.1,15.1-14.9,21.3
			c-6.8,6.2-15.6,11.1-26.4,14.9c-10.8,3.8-23.9,5.6-39.4,5.6c-4.3,0-9.1-0.3-14.3-0.9c-5.2-0.6-10.5-1.4-15.7-2.6
			c-5.3-1.2-10.3-2.6-15.2-4.2c-4.9-1.7-9.1-3.6-12.7-5.8l7.2-33.9c2.9,2,6.5,4.1,10.7,6.1c4.3,2,8.9,3.8,13.9,5.4
			c5,1.6,10.2,2.9,15.6,3.9c5.4,1,10.8,1.5,16.2,1.5c14.5,0,25.3-2.9,32.5-8.7c7.2-5.8,10.7-13.8,10.7-24.1c0-3.8-0.5-7.2-1.6-10.4
			c-1.1-3.2-3-6.4-5.8-9.6c-2.8-3.2-6.4-6.4-10.9-9.7c-4.5-3.3-10.1-6.9-16.9-11c-14.8-9-25.7-18.3-32.7-28.1
			c-7-9.8-10.5-20.8-10.5-33.1c0-9,1.7-17.5,5-25.7c3.3-8.2,8.3-15.4,14.9-21.7c6.6-6.3,14.9-11.3,24.9-15.1
			c10-3.8,21.6-5.6,34.9-5.6c10.4,0,20.3,1,29.6,3c9.3,2,17.3,4.6,23.8,7.8L1229.7,316.3z"/>
		<path class="st3" d="M1330.5,503.7c-9.5-0.7-18.3-2.6-26.3-5.8c-10.2-4-18.9-9.9-26-17.5c-7.2-7.6-12.7-16.8-16.5-27.6
			c-3.8-10.8-5.8-23-5.8-36.6c0-20.4,2.9-39.5,8.8-57.2c5.9-17.7,14.1-33.1,24.7-46.2c10.6-13.1,23.4-23.4,38.2-30.8
			c14.8-7.5,31.2-11.2,49.2-11.2c12.6,0,24,2,34.2,6.1c10.2,4.1,18.9,9.9,26.2,17.5c7.2,7.6,12.8,16.8,16.8,27.6c4,10.8,6,23,6,36.6
			c0,19.7-2.8,38.4-8.4,56c-5.6,17.7-13.6,33.1-24.1,46.3c-10.5,13.2-23.2,23.7-38.2,31.5c-15,7.7-31.9,11.6-50.7,11.6
			C1335.9,503.9,1333.2,503.9,1330.5,503.7 M1423.5,360.2c0-9.4-1.2-17.8-3.5-25.1c-2.3-7.3-5.6-13.5-9.8-18.5
			c-4.2-5-9.3-8.8-15.2-11.5c-5.9-2.7-12.6-4-20-4c-12.7,0-24.2,3.3-34.5,9.8c-10.3,6.5-19,15.1-26,25.7
			c-7.1,10.6-12.6,22.7-16.4,36.3c-3.8,13.5-5.8,27.4-5.8,41.6c0,9,1.1,17.1,3.4,24.4c2.2,7.3,5.4,13.5,9.6,18.7
			c4.1,5.1,9.2,9.1,15.2,11.8c6,2.8,12.8,4.1,20.3,4.1c12.9,0,24.5-3.2,34.7-9.7c10.3-6.4,19-15,26-25.6
			c7.1-10.6,12.5-22.8,16.3-36.4C1421.6,388.3,1423.5,374.4,1423.5,360.2z"/>
		<path class="st3" d="M1648,209.3c-1.4-0.7-3.2-1.4-5.2-2.1c-2-0.7-4.2-1.3-6.5-1.8c-2.3-0.6-4.7-1-7.3-1.4c-2.5-0.4-5-0.5-7.3-0.5
			c-11.9,0-21,3.9-27.5,11.6c-6.4,7.7-11.3,19.3-14.7,34.6l-8,35.6h52.5l-7.2,30.2h-52.5l-56.9,265.9h-36l57.3-265.9h-38.2l6.7-30.2
			h38.2l8.9-41.2c2.7-12.7,6.6-23.6,11.5-32.6c4.9-9,10.8-16.3,17.6-21.9c6.8-5.6,14.5-9.8,23.1-12.4c8.6-2.6,18.1-3.9,28.3-3.9
			c5.4,0,10.6,0.4,15.7,1.3c5.1,0.9,9.5,1.9,13.1,3L1648,209.3z"/>
		<path class="st3" d="M1761.3,307.4h-56l-25,117.9c-0.9,4.5-1.7,9.3-2.6,14.5c-0.9,5.2-1.3,9.4-1.3,12.6c0,7.4,1.6,12.7,4.9,16
			c3.3,3.3,8.4,4.9,15.5,4.9c1.7,0,4-0.3,6.7-0.9c2.7-0.6,5.6-1.3,8.5-2.2c2.9-0.9,5.8-1.8,8.6-2.9c2.8-1.1,5.3-2.1,7.5-2.9
			l-6.7,31.3c-5.1,2.2-10.8,4-17.3,5.5c-6.4,1.5-12.6,2.3-18.3,2.3c-8.2,0-15.3-1.1-21.1-3.1c-5.8-2.1-10.5-5.1-14.2-9
			s-6.4-8.6-8-14.2c-1.7-5.6-2.5-11.8-2.5-18.8c0-4.2,0.4-9.1,1.2-14.7c0.8-5.6,1.8-10.7,2.9-15.3l25.6-120.9h-36.9l6.7-30.2h36.5
			l11.5-54.3c0.6-0.3,2.8-1,6.6-2.1c3.8-1.1,8-2.3,12.6-3.7c4.6-1.4,8.8-2.6,12.6-3.8c3.8-1.2,6-1.8,6.4-2l-13.7,65.8h56
			L1761.3,307.4z"/>
	</g>
	<g>
		<path class="st4" d="M1229.7,320.3c-6.5-4.2-13.8-7.6-21.9-10.2c-8.1-2.6-16.2-3.9-24.3-3.9c-13.6,0-24.1,3.1-31.6,9.3
			c-7.5,6.2-11.2,14.5-11.2,24.7c0,4.2,0.7,8,2.1,11.5c1.4,3.5,3.4,6.8,6.1,9.9c2.7,3.1,6.1,6.1,10.2,9c4.1,2.9,8.9,6,14.2,9.3
			c16.2,9.4,27.9,19.1,35.1,29c7.2,9.9,10.7,21.1,10.7,33.5c0,8.4-1.6,16.6-4.7,24.6c-3.1,8-8.1,15.1-14.9,21.3
			c-6.8,6.2-15.6,11.1-26.4,14.9c-10.8,3.8-23.9,5.6-39.4,5.6c-4.3,0-9.1-0.3-14.3-0.9c-5.2-0.6-10.5-1.4-15.7-2.6
			c-5.3-1.2-10.3-2.6-15.2-4.2c-4.9-1.7-9.1-3.6-12.7-5.8l7.2-33.9c2.9,2,6.5,4.1,10.7,6.1c4.3,2,8.9,3.8,13.9,5.4
			c5,1.6,10.2,2.9,15.6,3.9c5.4,1,10.8,1.5,16.2,1.5c14.5,0,25.3-2.9,32.5-8.7c7.2-5.8,10.7-13.8,10.7-24.1c0-3.8-0.5-7.2-1.6-10.4
			c-1.1-3.2-3-6.4-5.8-9.6c-2.8-3.2-6.4-6.4-10.9-9.7c-4.5-3.3-10.1-6.9-16.9-11c-14.8-9-25.7-18.3-32.7-28.1
			c-7-9.8-10.5-20.8-10.5-33.1c0-9,1.7-17.5,5-25.7c3.3-8.2,8.3-15.4,14.9-21.7c6.6-6.3,14.9-11.3,24.9-15.1
			c10-3.8,21.6-5.6,34.9-5.6c10.4,0,20.3,1,29.6,3c9.3,2,17.3,4.6,23.8,7.8L1229.7,320.3z"/>
		<path class="st4" d="M1330.5,508.7c-9.5-0.7-18.3-2.6-26.3-5.8c-10.2-4-18.9-9.9-26-17.5c-7.2-7.6-12.7-16.8-16.5-27.6
			c-3.8-10.8-5.8-23-5.8-36.6c0-20.4,2.9-39.5,8.8-57.2c5.9-17.7,14.1-33.1,24.7-46.2c10.6-13.1,23.4-23.4,38.2-30.8
			c14.8-7.5,31.2-11.2,49.2-11.2c12.6,0,24,2,34.2,6.1c10.2,4.1,18.9,9.9,26.2,17.5c7.2,7.6,12.8,16.8,16.8,27.6c4,10.8,6,23,6,36.6
			c0,19.7-2.8,38.4-8.4,56c-5.6,17.7-13.6,33.1-24.1,46.3c-10.5,13.2-23.2,23.7-38.2,31.5c-15,7.7-31.9,11.6-50.7,11.6
			C1335.9,508.9,1333.2,508.9,1330.5,508.7 M1423.5,365.2c0-9.4-1.2-17.8-3.5-25.1c-2.3-7.3-5.6-13.5-9.8-18.5
			c-4.2-5-9.3-8.8-15.2-11.5c-5.9-2.7-12.6-4-20-4c-12.7,0-24.2,3.3-34.5,9.8c-10.3,6.5-19,15.1-26,25.7
			c-7.1,10.6-12.6,22.7-16.4,36.3c-3.8,13.5-5.8,27.4-5.8,41.6c0,9,1.1,17.1,3.4,24.4c2.2,7.3,5.4,13.5,9.6,18.7
			c4.1,5.1,9.2,9.1,15.2,11.8c6,2.8,12.8,4.1,20.3,4.1c12.9,0,24.5-3.2,34.7-9.7c10.3-6.4,19-15,26-25.6
			c7.1-10.6,12.5-22.8,16.3-36.4C1421.6,393.3,1423.5,379.4,1423.5,365.2z"/>
		<path class="st4" d="M1648,205.3c-1.4-0.7-3.2-1.4-5.2-2.1c-2-0.7-4.2-1.3-6.5-1.8c-2.3-0.6-4.7-1-7.3-1.4c-2.5-0.4-5-0.5-7.3-0.5
			c-11.9,0-21,3.9-27.5,11.6c-6.4,7.7-11.3,19.3-14.7,34.6l-8,35.6h52.5l-7.2,30.2h-52.5l-56.9,265.9h-36l57.3-265.9h-38.2l6.7-30.2
			h38.2l8.9-41.2c2.7-12.7,6.6-23.6,11.5-32.6c4.9-9,10.8-16.3,17.6-21.9c6.8-5.6,14.5-9.8,23.1-12.4c8.6-2.6,18.1-3.9,28.3-3.9
			c5.4,0,10.6,0.4,15.7,1.3c5.1,0.9,9.5,1.9,13.1,3L1648,205.3z"/>
		<path class="st4" d="M1761.3,311.4h-56l-25,117.9c-0.9,4.5-1.7,9.3-2.6,14.5c-0.9,5.2-1.3,9.4-1.3,12.6c0,7.4,1.6,12.7,4.9,16
			c3.3,3.3,8.4,4.9,15.5,4.9c1.7,0,4-0.3,6.7-0.9c2.7-0.6,5.6-1.3,8.5-2.2c2.9-0.9,5.8-1.8,8.6-2.9c2.8-1.1,5.3-2.1,7.5-2.9
			l-6.7,31.3c-5.1,2.2-10.8,4-17.3,5.5c-6.4,1.5-12.6,2.3-18.3,2.3c-8.2,0-15.3-1.1-21.1-3.1c-5.8-2.1-10.5-5.1-14.2-9
			s-6.4-8.6-8-14.2c-1.7-5.6-2.5-11.8-2.5-18.8c0-4.2,0.4-9.1,1.2-14.7c0.8-5.6,1.8-10.7,2.9-15.3l25.6-120.9h-36.9l6.7-30.2h36.5
			l11.5-54.3c0.6-0.3,2.8-1,6.6-2.1c3.8-1.1,8-2.3,12.6-3.7c4.6-1.4,8.8-2.6,12.6-3.8c3.8-1.2,6-1.8,6.4-2l-13.7,65.8h56
			L1761.3,311.4z"/>
	</g>
	<line class="st5" x1="687.6" y1="174.4" x2="590.2" y2="632.3"/>
	<line class="st5" x1="687.6" y1="174.4" x2="1768" y2="174.4"/>
	<line class="st5" x1="617.3" y1="503.5" x2="1768" y2="503.4"/>
	<path class="st5" d="M1768,503.4"/>
	<path class="st5" d="M1768,174.4"/>
</g>
<g id="text-white">
	<path class="st6" d="M831.7,337.2c0,1.9-0.3,4.7-0.8,8.6c-0.5,3.8-1.1,7.9-1.7,12.3c-0.7,4.3-1.4,8.6-2.2,12.9
		c-0.8,4.3-1.6,7.9-2.3,10.7l-25.8,121.8h-36L790,373.3c0.6-2.3,1.2-5,1.7-8c0.6-3,1.1-6.1,1.5-9.1c0.4-3,0.8-5.8,1.1-8.4
		c0.3-2.5,0.4-4.5,0.4-6c0-11.3-2.6-20-7.7-26.3c-5.1-6.2-13.1-9.3-23.8-9.3c-9.3,0-18.5,2.7-27.8,8.1c-9.3,5.4-17.9,12.4-25.8,21.1
		c-8,8.6-14.9,18.2-20.7,28.9c-5.9,10.6-10,21.2-12.3,31.6l-23.2,107.7h-36l70.3-329.1h35.6l-33.9,158.9h0.9
		c5.4-8.2,11.2-15.9,17.6-22.9c6.4-7,13.1-13.1,20.3-18.2c7.2-5.1,14.7-9.2,22.6-12c7.9-2.9,16-4.3,24.4-4.3
		c18.5,0,32.6,5.5,42.1,16.4C826.9,303.1,831.7,318.1,831.7,337.2z"/>
	<path class="st6" d="M962.6,383.9l78.6,119.6h-41.2L927,386.1h-0.9l-25,117.4h-36l70.3-329.1h35.6l-42.8,201h0.9l110.7-94.2h46.2
		L962.6,383.9z"/>
	<g>
		<path class="st6" d="M1229.8,316.3c-6.5-4.2-13.8-7.6-21.9-10.2c-8.1-2.6-16.2-3.9-24.3-3.9c-13.6,0-24.1,3.1-31.6,9.3
			c-7.5,6.2-11.2,14.5-11.2,24.7c0,4.2,0.7,8,2.1,11.5c1.4,3.5,3.4,6.8,6.1,9.9c2.7,3.1,6.1,6.1,10.2,9c4.1,2.9,8.9,6,14.2,9.3
			c16.2,9.4,27.9,19.1,35.1,29c7.2,9.9,10.7,21.1,10.7,33.5c0,8.4-1.6,16.6-4.7,24.6c-3.1,8-8.1,15.1-14.9,21.3
			c-6.8,6.2-15.6,11.1-26.4,14.9c-10.8,3.8-23.9,5.6-39.4,5.6c-4.3,0-9.1-0.3-14.3-0.9c-5.2-0.6-10.5-1.4-15.7-2.6
			c-5.3-1.2-10.3-2.6-15.2-4.2c-4.9-1.7-9.1-3.6-12.7-5.8l7.2-33.9c2.9,2,6.5,4.1,10.7,6.1c4.3,2,8.9,3.8,13.9,5.4
			c5,1.6,10.2,2.9,15.6,3.9c5.4,1,10.8,1.5,16.2,1.5c14.5,0,25.3-2.9,32.5-8.7c7.2-5.8,10.7-13.8,10.7-24.1c0-3.8-0.5-7.2-1.6-10.4
			c-1.1-3.2-3-6.4-5.8-9.6c-2.8-3.2-6.4-6.4-10.9-9.7c-4.5-3.3-10.1-6.9-16.9-11c-14.8-9-25.7-18.3-32.7-28.1
			c-7-9.8-10.5-20.8-10.5-33.1c0-9,1.7-17.5,5-25.7c3.3-8.2,8.3-15.4,14.9-21.7c6.6-6.3,14.9-11.3,24.9-15.1
			c10-3.8,21.6-5.6,34.9-5.6c10.4,0,20.3,1,29.6,3c9.3,2,17.3,4.6,23.8,7.8L1229.8,316.3z"/>
		<path class="st6" d="M1330.7,503.7c-9.5-0.7-18.3-2.6-26.3-5.8c-10.2-4-18.9-9.9-26-17.5c-7.2-7.6-12.7-16.8-16.5-27.6
			c-3.8-10.8-5.8-23-5.8-36.6c0-20.4,2.9-39.5,8.8-57.2c5.9-17.7,14.1-33.1,24.7-46.2c10.6-13.1,23.4-23.4,38.2-30.8
			c14.8-7.5,31.2-11.2,49.2-11.2c12.6,0,24,2,34.2,6.1c10.2,4.1,18.9,9.9,26.2,17.5c7.2,7.6,12.8,16.8,16.8,27.6c4,10.8,6,23,6,36.6
			c0,19.7-2.8,38.4-8.4,56c-5.6,17.7-13.6,33.1-24.1,46.3c-10.5,13.2-23.2,23.7-38.2,31.5c-15,7.7-31.9,11.6-50.7,11.6
			C1336,503.9,1333.3,503.9,1330.7,503.7 M1423.7,360.2c0-9.4-1.2-17.8-3.5-25.1c-2.3-7.3-5.6-13.5-9.8-18.5
			c-4.2-5-9.3-8.8-15.2-11.5c-5.9-2.7-12.6-4-20-4c-12.7,0-24.2,3.3-34.5,9.8c-10.3,6.5-19,15.1-26,25.7
			c-7.1,10.6-12.6,22.7-16.4,36.3c-3.8,13.5-5.8,27.4-5.8,41.6c0,9,1.1,17.1,3.4,24.4c2.2,7.3,5.4,13.5,9.6,18.7
			c4.1,5.1,9.2,9.1,15.2,11.8c6,2.8,12.8,4.1,20.3,4.1c12.9,0,24.5-3.2,34.7-9.7c10.3-6.4,19-15,26-25.6
			c7.1-10.6,12.5-22.8,16.3-36.4C1421.8,388.3,1423.7,374.4,1423.7,360.2z"/>
		<path class="st6" d="M1648.1,209.3c-1.4-0.7-3.2-1.4-5.2-2.1c-2-0.7-4.2-1.3-6.5-1.8c-2.3-0.6-4.7-1-7.3-1.4
			c-2.5-0.4-5-0.5-7.3-0.5c-11.9,0-21,3.9-27.5,11.6c-6.4,7.7-11.3,19.3-14.7,34.6l-8,35.6h52.5l-7.2,30.2h-52.5l-56.9,265.9h-36
			l57.3-265.9h-38.2l6.7-30.2h38.2l8.9-41.2c2.7-12.7,6.6-23.6,11.5-32.6c4.9-9,10.8-16.3,17.6-21.9c6.8-5.6,14.5-9.8,23.1-12.4
			c8.6-2.6,18.1-3.9,28.3-3.9c5.4,0,10.6,0.4,15.7,1.3c5.1,0.9,9.5,1.9,13.1,3L1648.1,209.3z"/>
		<path class="st6" d="M1761.5,307.4h-56l-25,117.9c-0.9,4.5-1.7,9.3-2.6,14.5c-0.9,5.2-1.3,9.4-1.3,12.6c0,7.4,1.6,12.7,4.9,16
			c3.3,3.3,8.4,4.9,15.5,4.9c1.7,0,4-0.3,6.7-0.9c2.7-0.6,5.6-1.3,8.5-2.2c2.9-0.9,5.8-1.8,8.6-2.9c2.8-1.1,5.3-2.1,7.5-2.9
			l-6.7,31.3c-5.1,2.2-10.8,4-17.3,5.5c-6.4,1.5-12.6,2.3-18.3,2.3c-8.2,0-15.3-1.1-21.1-3.1c-5.8-2.1-10.5-5.1-14.2-9
			c-3.7-3.9-6.4-8.6-8-14.2c-1.7-5.6-2.5-11.8-2.5-18.8c0-4.2,0.4-9.1,1.2-14.7c0.8-5.6,1.8-10.7,2.9-15.3l25.6-120.9h-36.9
			l6.7-30.2h36.5l11.5-54.3c0.6-0.3,2.8-1,6.6-2.1c3.8-1.1,8-2.3,12.6-3.7c4.6-1.4,8.8-2.6,12.6-3.8c3.8-1.2,6-1.8,6.4-2l-13.7,65.8
			h56L1761.5,307.4z"/>
	</g>
	<g class="st0">
		<path class="st7" d="M1229.8,320.3c-6.5-4.2-13.8-7.6-21.9-10.2c-8.1-2.6-16.2-3.9-24.3-3.9c-13.6,0-24.1,3.1-31.6,9.3
			c-7.5,6.2-11.2,14.5-11.2,24.7c0,4.2,0.7,8,2.1,11.5c1.4,3.5,3.4,6.8,6.1,9.9c2.7,3.1,6.1,6.1,10.2,9c4.1,2.9,8.9,6,14.2,9.3
			c16.2,9.4,27.9,19.1,35.1,29c7.2,9.9,10.7,21.1,10.7,33.5c0,8.4-1.6,16.6-4.7,24.6c-3.1,8-8.1,15.1-14.9,21.3
			c-6.8,6.2-15.6,11.1-26.4,14.9c-10.8,3.8-23.9,5.6-39.4,5.6c-4.3,0-9.1-0.3-14.3-0.9c-5.2-0.6-10.5-1.4-15.7-2.6
			c-5.3-1.2-10.3-2.6-15.2-4.2c-4.9-1.7-9.1-3.6-12.7-5.8l7.2-33.9c2.9,2,6.5,4.1,10.7,6.1c4.3,2,8.9,3.8,13.9,5.4
			c5,1.6,10.2,2.9,15.6,3.9c5.4,1,10.8,1.5,16.2,1.5c14.5,0,25.3-2.9,32.5-8.7c7.2-5.8,10.7-13.8,10.7-24.1c0-3.8-0.5-7.2-1.6-10.4
			c-1.1-3.2-3-6.4-5.8-9.6c-2.8-3.2-6.4-6.4-10.9-9.7c-4.5-3.3-10.1-6.9-16.9-11c-14.8-9-25.7-18.3-32.7-28.1
			c-7-9.8-10.5-20.8-10.5-33.1c0-9,1.7-17.5,5-25.7c3.3-8.2,8.3-15.4,14.9-21.7c6.6-6.3,14.9-11.3,24.9-15.1
			c10-3.8,21.6-5.6,34.9-5.6c10.4,0,20.3,1,29.6,3c9.3,2,17.3,4.6,23.8,7.8L1229.8,320.3z"/>
		<path class="st7" d="M1330.7,508.7c-9.5-0.7-18.3-2.6-26.3-5.8c-10.2-4-18.9-9.9-26-17.5c-7.2-7.6-12.7-16.8-16.5-27.6
			c-3.8-10.8-5.8-23-5.8-36.6c0-20.4,2.9-39.5,8.8-57.2c5.9-17.7,14.1-33.1,24.7-46.2c10.6-13.1,23.4-23.4,38.2-30.8
			c14.8-7.5,31.2-11.2,49.2-11.2c12.6,0,24,2,34.2,6.1c10.2,4.1,18.9,9.9,26.2,17.5c7.2,7.6,12.8,16.8,16.8,27.6c4,10.8,6,23,6,36.6
			c0,19.7-2.8,38.4-8.4,56c-5.6,17.7-13.6,33.1-24.1,46.3c-10.5,13.2-23.2,23.7-38.2,31.5c-15,7.7-31.9,11.6-50.7,11.6
			C1336,508.9,1333.3,508.9,1330.7,508.7 M1423.7,365.2c0-9.4-1.2-17.8-3.5-25.1c-2.3-7.3-5.6-13.5-9.8-18.5
			c-4.2-5-9.3-8.8-15.2-11.5c-5.9-2.7-12.6-4-20-4c-12.7,0-24.2,3.3-34.5,9.8c-10.3,6.5-19,15.1-26,25.7
			c-7.1,10.6-12.6,22.7-16.4,36.3c-3.8,13.5-5.8,27.4-5.8,41.6c0,9,1.1,17.1,3.4,24.4c2.2,7.3,5.4,13.5,9.6,18.7
			c4.1,5.1,9.2,9.1,15.2,11.8c6,2.8,12.8,4.1,20.3,4.1c12.9,0,24.5-3.2,34.7-9.7c10.3-6.4,19-15,26-25.6
			c7.1-10.6,12.5-22.8,16.3-36.4C1421.8,393.3,1423.7,379.4,1423.7,365.2z"/>
		<path class="st7" d="M1648.1,205.3c-1.4-0.7-3.2-1.4-5.2-2.1c-2-0.7-4.2-1.3-6.5-1.8c-2.3-0.6-4.7-1-7.3-1.4
			c-2.5-0.4-5-0.5-7.3-0.5c-11.9,0-21,3.9-27.5,11.6c-6.4,7.7-11.3,19.3-14.7,34.6l-8,35.6h52.5l-7.2,30.2h-52.5l-56.9,265.9h-36
			l57.3-265.9h-38.2l6.7-30.2h38.2l8.9-41.2c2.7-12.7,6.6-23.6,11.5-32.6c4.9-9,10.8-16.3,17.6-21.9c6.8-5.6,14.5-9.8,23.1-12.4
			c8.6-2.6,18.1-3.9,28.3-3.9c5.4,0,10.6,0.4,15.7,1.3c5.1,0.9,9.5,1.9,13.1,3L1648.1,205.3z"/>
		<path class="st7" d="M1761.5,311.4h-56l-25,117.9c-0.9,4.5-1.7,9.3-2.6,14.5c-0.9,5.2-1.3,9.4-1.3,12.6c0,7.4,1.6,12.7,4.9,16
			c3.3,3.3,8.4,4.9,15.5,4.9c1.7,0,4-0.3,6.7-0.9c2.7-0.6,5.6-1.3,8.5-2.2c2.9-0.9,5.8-1.8,8.6-2.9c2.8-1.1,5.3-2.1,7.5-2.9
			l-6.7,31.3c-5.1,2.2-10.8,4-17.3,5.5c-6.4,1.5-12.6,2.3-18.3,2.3c-8.2,0-15.3-1.1-21.1-3.1c-5.8-2.1-10.5-5.1-14.2-9
			c-3.7-3.9-6.4-8.6-8-14.2c-1.7-5.6-2.5-11.8-2.5-18.8c0-4.2,0.4-9.1,1.2-14.7c0.8-5.6,1.8-10.7,2.9-15.3l25.6-120.9h-36.9
			l6.7-30.2h36.5l11.5-54.3c0.6-0.3,2.8-1,6.6-2.1c3.8-1.1,8-2.3,12.6-3.7c4.6-1.4,8.8-2.6,12.6-3.8c3.8-1.2,6-1.8,6.4-2l-13.7,65.8
			h56L1761.5,311.4z"/>
	</g>
	<line class="st6" x1="687.8" y1="174.4" x2="590.3" y2="632.3"/>
	<line class="st6" x1="687.8" y1="174.4" x2="1768.2" y2="174.4"/>
	<line class="st6" x1="617.5" y1="503.5" x2="1768.2" y2="503.4"/>
	<path class="st6" d="M1768.2,503.4"/>
	<path class="st6" d="M1768.2,174.4"/>
</g>
<g id="logo">
	<path class="st8" d="M301.4,537.7c63,96.2,191.7,123.4,288.2,61.4c0.6-0.3,1.2-0.6,1.7-1c7.3-4.8,9.3-14.5,4.5-21.7
		c-4.7-7.3-14.5-9.3-21.7-4.5c-0.4,0.3-0.9,0.6-1.3,0.9c-86.9,55.9-202.8,31.4-259.6-55.2c-7.5-11.5-13.7-23.5-18.4-35.9
		c-6.3,0.6-12.7,0.9-19.1,0.8C281.5,501.6,290,520.2,301.4,537.7L301.4,537.7z M291.1,470.9c-19.3-61.1-6-128.2,34.9-177.2
		c-3.4-1.8-6.8-3.4-10.3-5c-42.4,50.8-58.2,119-42.8,183C279,471.7,285.1,471.5,291.1,470.9L291.1,470.9z M338.4,280.2
		c8.8-8.6,18.5-16.6,29.2-23.6l0-0.1c2.4-1.6,3.1-4.8,1.5-7.2c-1.6-2.4-4.8-3.1-7.2-1.5l-0.1-0.1c-12.2,8-23.2,17-33.1,26.9
		C332,276.4,335.2,278.3,338.4,280.2L338.4,280.2z"/>
	<path class="st9" d="M481.1,315.8C504.5,203.3,432.7,93,320.6,68.6c-0.6-0.2-1.2-0.4-1.9-0.5c-8.5-1.8-16.8,3.7-18.6,12.2
		c-1.8,8.5,3.7,16.8,12.2,18.6c0.5,0.1,1,0.2,1.6,0.3c101,21.9,165.7,121.2,144.6,222.5c-5.5,26.4-16.2,50.3-30.9,70.9
		c2.1,6.3,3.9,12.8,5.5,19.3C456.4,385.4,473.4,352.8,481.1,315.8L481.1,315.8z M418.7,404c-43.2,51.6-112.6,78.4-183.1,63.7l0,0.1
		c-2.8-0.6-5.6,1.2-6.2,4.1c-0.6,2.8,1.2,5.6,4,6.2l0,0.1c71.3,14.8,141.8-8.5,190-56.2C422.1,415.9,420.5,409.9,418.7,404
		L418.7,404z"/>
	<path class="st10" d="M271.6,253.8C159,230.3,48.7,302.1,24.3,414.2c-0.2,0.6-0.4,1.2-0.5,1.9c-1.8,8.5,3.7,16.8,12.2,18.6
		c8.5,1.8,16.8-3.7,18.6-12.2c0.1-0.5,0.2-1,0.2-1.6c21.9-101,121.2-165.7,222.6-144.6c101.9,21.2,167.3,121,146.1,222.9l0.1,0
		c-0.6,2.8,1.2,5.6,4.1,6.2c2.8,0.6,5.6-1.2,6.2-4l0.1,0C457.5,388.2,384.8,277.3,271.6,253.8L271.6,253.8z"/>
	<path class="st11" d="M271.6,253.8C159,230.3,48.7,302.1,24.3,414.2c-0.2,0.6-0.4,1.2-0.5,1.9c-1.8,8.5,3.7,16.8,12.2,18.6
		c8.5,1.8,16.8-3.7,18.6-12.2c0.1-0.5,0.2-1,0.2-1.6c21.9-101,121.2-165.7,222.6-144.6c101.9,21.2,167.3,121,146.1,222.9l0.1,0
		c-0.6,2.8,1.2,5.6,4.1,6.2c2.8,0.6,5.6-1.2,6.2-4l0.1,0C457.5,388.2,384.8,277.3,271.6,253.8L271.6,253.8z"/>
</g>
<g class="st0">
	<g class="st2">
		<path class="st12" d="M246.8,622.5c155.5,34.8,309.8-62.9,344.6-218.4C626.3,248.6,528.5,94.3,373,59.5
			c-57.6-12.9-115-7.6-166.2,12.1c-18.1,7.5-35.5,16.6-51.7,27.5c54.3-30,119.9-39.9,184.6-22.6c132.9,35.5,211.9,172,176.5,305
			c-35.5,133-172,212-305,176.5C94.4,526.8,19.3,417.7,26.7,301.5c-7.7,51.2-1.5,101.8,15.8,147.8C77,534,150.9,601,246.8,622.5z"/>
	</g>
	<g class="st2">
		<path class="st3" d="M341.7,168.2c-93.2-23.9-188.2,32.3-212.1,125.5c-23.9,93.2,32.3,188.2,125.5,212.1
			c34.5,8.9,69.3,6.7,100.6-4.2c11.1-4.2,21.7-9.4,31.7-15.6c-33.4,17.1-73.1,21.8-111.9,10.2C196,472.3,150.8,388.4,174.7,308.8
			C198.6,229.2,282.4,184,362,207.9c69.9,21,113.3,88.2,106.6,158.2c5.6-30.7,2.8-61.4-6.8-89.6C442.6,224.8,399.2,183,341.7,168.2z
			"/>
	</g>
	<g class="st2">
		<path class="st13" d="M310,467.2c57.7,14.8,116.5-20,131.3-77.7c14.8-57.7-20-116.5-77.7-131.3c-21.4-5.5-42.9-4.1-62.3,2.6
			c-6.8,2.6-13.4,5.8-19.6,9.7c20.7-10.6,45.3-13.5,69.2-6.3c49.3,14.8,77.2,66.7,62.5,116c-14.8,49.3-66.7,77.2-116,62.5
			c-43.3-13-70.1-54.6-66-97.9c-3.5,19-1.7,38,4.2,55.4C247.5,432.2,274.4,458.1,310,467.2z"/>
	</g>
</g>
<g id="XMLID_1_" class="st0">
	<g class="st2">
		<path class="st14" d="M-278.8,370l25.2,13.6c-8.5,15.8-21.3,28.9-36.8,37.9l-14.3-24.8C-293.8,390.3-284.8,381.1-278.8,370z"/>
		<path class="st15" d="M-304.7,396.6l14.3,24.8c-14.2,8.1-30.6,12.8-48,12.8v-28.6C-326.2,405.6-314.7,402.3-304.7,396.6z"/>
		<path class="st16" d="M-338.5,405.6v28.6c-16.5,0-32.1-4.2-45.7-11.5l13.6-25.2C-361.1,402.7-350.1,405.6-338.5,405.6z"/>
		<path class="st17" d="M-370.6,397.5l-13.6,25.2c-15.8-8.5-28.9-21.3-37.9-36.8l24.8-14.3C-391,382.5-381.7,391.5-370.6,397.5z"/>
		<path class="st18" d="M-397.2,371.6l-24.8,14.3c-8.1-14.1-12.8-30.6-12.8-48h28.6C-406.2,350.1-403,361.7-397.2,371.6z"/>
		<path class="st19" d="M-423.4,292.2l25.2,13.6c-5.2,9.6-8.1,20.5-8.1,32.1h-28.6C-434.9,321.3-430.7,305.8-423.4,292.2z"/>
		<path class="st20" d="M-386.5,254.3l14.3,24.8c-10.9,6.3-19.9,15.5-25.9,26.6l-25.2-13.6C-414.8,276.4-402.1,263.2-386.5,254.3z"
			/>
		<path class="st21" d="M-338.5,241.5v28.6c-12.3,0-23.8,3.3-33.8,9l-14.3-24.8C-372.4,246.1-356,241.5-338.5,241.5z"/>
		<path class="st22" d="M-292.8,253l-13.6,25.2c-9.6-5.2-20.5-8.1-32.1-8.1v-28.6C-322,241.5-306.4,245.6-292.8,253z"/>
		<path class="st23" d="M-254.9,289.8l-24.8,14.3c-6.3-10.9-15.5-19.9-26.6-25.9l13.6-25.2C-277,261.5-263.9,274.3-254.9,289.8z"/>
		<path class="st24" d="M-242.1,337.8h-28.6c0-12.3-3.3-23.8-9-33.8l24.8-14.3C-246.8,304-242.1,320.4-242.1,337.8z"/>
		<path class="st25" d="M-270.7,337.8h28.6c0,16.5-4.2,32.1-11.5,45.7l-25.2-13.6C-273.7,360.4-270.7,349.5-270.7,337.8z"/>
		<path class="st26" d="M-242.1,337.8h29.2c0,21.5-5.4,41.8-15,59.5l-25.8-13.9C-246.3,369.9-242.1,354.4-242.1,337.8z"/>
		<path class="st27" d="M-212.9,337.8h29c0,26.5-6.7,51.5-18.4,73.3l-25.5-13.8C-218.3,379.7-212.9,359.4-212.9,337.8z"/>
		<path class="st28" d="M-183.9,337.8h25.6c0,30.9-7.8,60-21.5,85.4l-22.5-12.1C-190.6,389.3-183.9,364.4-183.9,337.8z"/>
		<path class="st29" d="M-158.3,337.8h28.7c0,35.8-9,69.5-24.9,99l-25.2-13.6C-166.1,397.8-158.3,368.7-158.3,337.8z"/>
		<path class="st30" d="M-100.6,337.8h27.1c0,45.5-11.4,88.2-31.6,125.6l-23.9-12.9C-110.9,417.1-100.6,378.6-100.6,337.8z"/>
		<path class="st31" d="M-129.7,337.8h29c0,40.8-10.3,79.2-28.4,112.8l-25.6-13.8C-138.7,407.4-129.7,373.7-129.7,337.8z"/>
		<path class="st32" d="M-73.5,337.8h28.8c0,50.4-12.7,97.8-35,139.3l-25.3-13.6C-85,426.1-73.5,383.3-73.5,337.8z"/>
		<path class="st33" d="M-44.7,337.8H-15c0,55.5-14,107.7-38.6,153.4l-0.1,0l-26.2-14.1C-57.4,435.7-44.7,388.2-44.7,337.8z"/>
		<path class="st34" d="M-253.6,383.5l25.8,13.9c-11.1,20.6-27.8,37.7-48,49.4l-14.6-25.3C-274.9,412.5-262.1,399.3-253.6,383.5z"/>
		<path class="st35" d="M-227.9,397.4l25.5,13.8c-13.7,25.3-34.2,46.4-59.1,60.8l-14.5-25.2C-255.6,435.1-239,418-227.9,397.4z"/>
		<path class="st36" d="M-202.3,411.1l22.5,12.1c-15.9,29.5-39.8,54.1-68.9,70.8l-12.7-22.2C-236.5,457.6-216,436.5-202.3,411.1z"/>
		<path class="st37" d="M-179.8,423.2l25.2,13.6c-18.4,34.2-46.2,62.7-79.8,82.1l-14.3-24.8C-219.7,477.3-195.7,452.8-179.8,423.2z"
			/>
		<path class="st38" d="M-154.6,436.8l25.6,13.8c-21,39-52.6,71.4-90.9,93.5l-14.5-25.2C-200.8,499.5-173,471.1-154.6,436.8z"/>
		<path class="st39" d="M-129,450.6l23.9,12.9c-23.4,43.4-58.6,79.6-101.3,104.2l-13.5-23.5C-181.6,522-150,489.6-129,450.6z"/>
		<path class="st40" d="M-105.1,463.5l25.3,13.6c-26,48.2-65,88.2-112.3,115.5l-14.3-25C-163.7,543-128.5,506.9-105.1,463.5z"/>
		<path class="st41" d="M-53.6,491.2L-53.6,491.2c-28.5,53.1-71.5,97.2-123.6,127.2l0-0.1l-14.8-25.8
			c47.3-27.3,86.3-67.3,112.3-115.5L-53.6,491.2z"/>
		<path class="st42" d="M-290.5,421.4l14.6,25.3c-18.4,10.6-39.8,16.7-62.6,16.7v-29.2C-321,434.2-304.6,429.6-290.5,421.4z"/>
		<path class="st43" d="M-275.9,446.8l14.5,25.2c-22.7,13.1-49,20.5-77.1,20.5v-29C-315.7,463.5-294.3,457.4-275.9,446.8z"/>
		<path class="st44" d="M-261.4,471.9l12.7,22.2c-26.4,15.2-57.1,23.9-89.8,23.9v-25.6C-310.4,492.5-284.1,485-261.4,471.9z"/>
		<path class="st45" d="M-248.7,494.1l14.3,24.8c-30.6,17.7-66.2,27.8-104.1,27.8V518C-305.8,518-275.1,509.3-248.7,494.1z"/>
		<path class="st46" d="M-234.4,518.9l14.5,25.2c-34.9,20.1-75.4,31.6-118.6,31.6v-29C-300.6,546.7-265,536.6-234.4,518.9z"/>
		<path class="st47" d="M-219.9,544.1l13.5,23.5c-38.9,22.4-84,35.2-132.1,35.2v-27.1C-295.3,575.7-254.8,564.2-219.9,544.1z"/>
		<path class="st48" d="M-206.4,567.6l14.3,25c-43.1,24.8-93.1,39-146.4,39v-28.8C-290.4,602.8-245.3,590-206.4,567.6z"/>
		<path class="st49" d="M-177.2,618.3L-177.2,618.3c-47.4,27.4-102.5,43.1-161.3,43.1v-29.8c53.3,0,103.3-14.2,146.4-39
			L-177.2,618.3z"/>
		<path class="st50" d="M-338.5,434.2v29.2c-21.5,0-41.8-5.4-59.5-15l13.9-25.8C-370.6,430.1-355,434.2-338.5,434.2z"/>
		<path class="st51" d="M-338.5,463.5v29c-26.5,0-51.5-6.7-73.3-18.4l13.8-25.5C-380.3,458-360,463.5-338.5,463.5z"/>
		<path class="st52" d="M-338.5,492.5V518c-30.9,0-60-7.8-85.4-21.5l12.1-22.5C-390,485.8-365,492.5-338.5,492.5z"/>
		<path class="st53" d="M-338.5,518v28.7c-35.8,0-69.5-9-99-24.9l13.6-25.3C-398.5,510.2-369.4,518-338.5,518z"/>
		<path class="st54" d="M-338.5,546.7v29c-40.8,0-79.2-10.3-112.8-28.4l13.8-25.6C-408,537.6-374.3,546.7-338.5,546.7z"/>
		<path class="st55" d="M-338.5,575.7v27.1c-45.5,0-88.2-11.4-125.6-31.6l12.9-23.9C-417.7,565.4-379.3,575.7-338.5,575.7z"/>
		<path class="st56" d="M-338.5,602.8v28.8c-50.4,0-97.8-12.7-139.3-35l13.6-25.3C-426.7,591.4-384,602.8-338.5,602.8z"/>
		<path class="st57" d="M-338.5,631.6v29.8c-55.5,0-107.7-14-153.4-38.6l0,0l14.1-26.2C-436.3,618.9-388.9,631.6-338.5,631.6z"/>
		<path class="st58" d="M-384.2,422.7l-13.9,25.8c-20.6-11.1-37.7-27.8-49.4-48l25.3-14.6C-413.1,401.4-400,414.2-384.2,422.7z"/>
		<path class="st59" d="M-398,448.5l-13.8,25.5c-25.3-13.7-46.4-34.2-60.8-59.1l25.2-14.5C-435.8,420.7-418.6,437.4-398,448.5z"/>
		<path class="st60" d="M-411.8,474l-12.1,22.5c-29.5-15.9-54.1-39.8-70.8-68.8l22.1-12.7C-458.2,439.8-437.1,460.3-411.8,474z"/>
		<path class="st61" d="M-423.9,496.5l-13.6,25.3c-34.2-18.4-62.7-46.2-82.1-79.8l24.9-14.3C-478,456.7-453.4,480.6-423.9,496.5z"/>
		<path class="st62" d="M-437.5,521.8l-13.8,25.6c-39-21-71.4-52.6-93.5-90.9l25.2-14.5C-500.2,475.6-471.7,503.3-437.5,521.8z"/>
		<path class="st63" d="M-451.3,547.3l-12.9,23.9c-43.4-23.4-79.6-58.6-104.1-101.3l23.5-13.5C-522.7,494.7-490.2,526.3-451.3,547.3
			z"/>
		<path class="st64" d="M-464.1,571.2l-13.6,25.3c-48.1-26-88.2-65-115.5-112.3l25-14.4C-543.7,512.6-507.5,547.8-464.1,571.2z"/>
		<path class="st65" d="M-477.8,596.6l-14.1,26.2l0,0c-53-28.6-97.1-71.5-127.2-123.7l0,0l25.8-14.8
			C-566,531.6-525.9,570.6-477.8,596.6z"/>
		<path class="st66" d="M-422.1,385.9l-25.3,14.6c-10.6-18.4-16.7-39.8-16.7-62.6h29.2C-434.9,355.3-430.2,371.7-422.1,385.9z"/>
		<path class="st67" d="M-447.4,400.5l-25.2,14.5c-13.1-22.7-20.5-49-20.5-77.1h29C-464.1,360.6-458,382-447.4,400.5z"/>
		<path class="st68" d="M-472.6,414.9l-22.1,12.7c-15.2-26.4-23.9-57.1-23.9-89.8h25.6C-493.1,365.9-485.6,392.2-472.6,414.9z"/>
		<path class="st69" d="M-494.7,427.7l-24.9,14.3c-17.6-30.6-27.8-66.2-27.8-104.1h28.7C-518.7,370.5-509.9,401.2-494.7,427.7z"/>
		<path class="st70" d="M-519.6,441.9l-25.2,14.5c-20.1-34.9-31.6-75.4-31.6-118.6h29.1C-547.3,375.8-537.2,411.3-519.6,441.9z"/>
		<path class="st71" d="M-544.7,456.4l-23.5,13.5c-22.4-38.9-35.2-84-35.2-132.1h27.1C-576.4,381-564.9,421.5-544.7,456.4z"/>
		<path class="st72" d="M-568.3,469.9l-25,14.4c-24.8-43.1-39-93.1-39-146.4h28.8C-603.5,385.9-590.7,431-568.3,469.9z"/>
		<path class="st73" d="M-593.2,484.3l-25.8,14.8l0,0c-27.4-47.5-43-102.5-43-161.3h29.8C-632.3,391.2-618.1,441.2-593.2,484.3z"/>
		<path class="st74" d="M-449.1,278.3l25.8,13.9c-7.3,13.6-11.5,29.1-11.5,45.7h-29.2C-464.1,316.3-458.7,296-449.1,278.3z"/>
		<path class="st75" d="M-474.7,264.6l25.5,13.8c-9.6,17.7-15,38-15,59.5h-29C-493.1,311.3-486.4,286.4-474.7,264.6z"/>
		<path class="st76" d="M-497.2,252.4l22.5,12.1c-11.8,21.8-18.4,46.8-18.4,73.3h-25.6C-518.7,306.9-510.9,277.9-497.2,252.4z"/>
		<path class="st77" d="M-522.4,238.9l25.2,13.6c-13.7,25.4-21.5,54.5-21.5,85.4h-28.7C-547.3,302-538.3,268.3-522.4,238.9z"/>
		<path class="st78" d="M-548,225.1l25.6,13.8c-15.9,29.5-24.9,63.2-24.9,99h-29.1C-576.4,297-566.1,258.6-548,225.1z"/>
		<path class="st79" d="M-571.9,212.2l23.9,12.9c-18.1,33.5-28.4,71.9-28.4,112.8h-27.1C-603.5,292.4-592,249.6-571.9,212.2z"/>
		<path class="st80" d="M-597.2,198.6l25.4,13.6c-20.2,37.4-31.6,80.2-31.6,125.6h-28.8C-632.3,287.5-619.6,240-597.2,198.6z"/>
		<path class="st81" d="M-623.4,184.5l26.2,14.1c-22.4,41.4-35,88.9-35,139.3H-662C-662,282.4-648.1,230.1-623.4,184.5L-623.4,184.5
			z"/>
		<path class="st82" d="M-401.1,228.9l14.6,25.3c-15.5,8.9-28.3,22.1-36.8,37.9l-25.8-13.9C-438,257.7-421.3,240.6-401.1,228.9z"/>
		<path class="st83" d="M-415.6,203.8l14.5,25.1c-20.2,11.7-36.9,28.8-48,49.4l-25.5-13.8C-461,239.2-440.5,218.1-415.6,203.8z"/>
		<path class="st84" d="M-428.3,181.6l12.7,22.2c-24.9,14.3-45.4,35.4-59.1,60.8l-22.5-12.1C-481.2,222.9-457.3,198.3-428.3,181.6z"
			/>
		<path class="st85" d="M-442.6,156.8l14.3,24.9c-29,16.7-52.9,41.3-68.9,70.8l-25.2-13.6C-503.9,204.6-476.2,176.2-442.6,156.8z"/>
		<path class="st86" d="M-457.1,131.6l14.5,25.2c-33.6,19.4-61.4,47.9-79.8,82.1l-25.6-13.8C-527,186.1-495.4,153.7-457.1,131.6z"/>
		<path class="st87" d="M-470.6,108.1l13.5,23.5c-38.3,22.1-69.9,54.5-90.9,93.5l-23.9-12.9C-548.5,168.8-513.3,132.7-470.6,108.1z"
			/>
		<path class="st88" d="M-484.9,83.1l14.3,25c-42.7,24.6-77.9,60.7-101.3,104.2l-25.4-13.6C-571.3,150.4-532.3,110.4-484.9,83.1z"/>
		<path class="st89" d="M-499.7,57.4l14.8,25.8c-47.3,27.3-86.3,67.3-112.3,115.5l-26.2-14.1l0,0
			C-594.8,131.5-551.9,87.3-499.7,57.4L-499.7,57.4z"/>
		<path class="st90" d="M-212.9,337.8h-29.2c0-17.5-4.7-33.9-12.8-48l25.4-14.6C-219,293.7-212.9,315-212.9,337.8z"/>
		<path class="st91" d="M-183.9,337.8h-29c0-22.8-6.1-44.2-16.7-62.6l25.1-14.5C-191.4,283.5-183.9,309.8-183.9,337.8z"/>
		<path class="st92" d="M-158.3,337.8h-25.6c0-28.1-7.5-54.4-20.5-77.1l22.2-12.7C-167,274.5-158.3,305.1-158.3,337.8z"/>
		<path class="st93" d="M-129.7,337.8h-28.7c0-32.7-8.7-63.4-23.9-89.8l24.8-14.3C-139.8,264.4-129.7,299.9-129.7,337.8z"/>
		<path class="st94" d="M-100.6,337.8h-29c0-37.9-10.1-73.5-27.8-104.1l25.2-14.5C-112.1,254.2-100.6,294.7-100.6,337.8z"/>
		<path class="st95" d="M-73.5,337.8h-27.1c0-43.2-11.5-83.7-31.6-118.6l23.5-13.5C-86.3,244.6-73.5,289.7-73.5,337.8z"/>
		<path class="st96" d="M-44.7,337.8h-28.8c0-48.1-12.8-93.2-35.2-132.1l25-14.4C-58.9,234.5-44.7,284.5-44.7,337.8z"/>
		<path class="st97" d="M-15,337.8h-29.8c0-53.3-14.2-103.3-39-146.4l25.7-14.8l0.1,0C-30.6,224-15,279.1-15,337.8z"/>
		<path class="st98" d="M-229.6,275.2l-25.4,14.6c-8.9-15.5-22.1-28.3-37.9-36.8l13.9-25.8C-258.4,238.3-241.2,255-229.6,275.2z"/>
		<path class="st99" d="M-204.4,260.8l-25.1,14.5c-11.7-20.2-28.8-36.9-49.4-48l13.8-25.5C-239.9,215.3-218.8,235.9-204.4,260.8z"/>
		<path class="st100" d="M-182.3,248l-22.2,12.7c-14.3-24.9-35.4-45.4-60.8-59.1l12.1-22.5C-223.6,195.1-199,219-182.3,248z"/>
		<path class="st101" d="M-157.4,233.8l-24.8,14.3c-16.7-29-41.3-52.9-70.8-68.8l13.6-25.3C-205.3,172.4-176.8,200.1-157.4,233.8z"
			/>
		<path class="st102" d="M-132.2,219.3l-25.2,14.5c-19.4-33.6-47.9-61.4-82.1-79.8l13.8-25.6C-186.8,149.4-154.3,181-132.2,219.3z"
			/>
		<path class="st103" d="M-108.7,205.8l-23.5,13.5c-22.1-38.3-54.5-69.9-93.5-90.9l12.9-23.9C-169.5,127.9-133.3,163.1-108.7,205.8z
			"/>
		<path class="st104" d="M-83.8,191.4l-25,14.4c-24.6-42.7-60.7-77.9-104.2-101.3l13.6-25.3C-151.1,105.1-111,144.1-83.8,191.4z"/>
		<path class="st105" d="M-58,176.6L-58,176.6l-25.8,14.8c-27.3-47.3-67.3-86.3-115.5-112.3l14.1-26.2l0,0
			C-132.1,81.5-88,124.5-58,176.6z"/>
		<path class="st106" d="M-279,227.2l-13.9,25.8c-13.6-7.3-29.2-11.5-45.7-11.5v-29.2C-316.9,212.2-296.7,217.7-279,227.2z"/>
		<path class="st107" d="M-265.2,201.7l-13.8,25.5c-17.7-9.6-38-15-59.5-15v-29C-312,183.2-287,189.9-265.2,201.7z"/>
		<path class="st108" d="M-253.1,179.2l-12.1,22.5c-21.8-11.8-46.8-18.4-73.3-18.4v-25.5C-307.6,157.7-278.5,165.5-253.1,179.2z"/>
		<path class="st109" d="M-239.5,153.9l-13.6,25.3c-25.4-13.7-54.5-21.5-85.4-21.5V129C-302.7,129-269,138-239.5,153.9z"/>
		<path class="st110" d="M-225.7,128.4l-13.8,25.6c-29.5-15.9-63.2-24.9-99-24.9v-29C-297.7,100-259.3,110.3-225.7,128.4z"/>
		<path class="st111" d="M-212.9,104.5l-12.9,23.9c-33.6-18.1-71.9-28.4-112.8-28.4V72.9C-293,72.9-250.3,84.3-212.9,104.5z"/>
		<path class="st112" d="M-199.2,79.1l-13.6,25.3c-37.4-20.2-80.2-31.6-125.6-31.6V44.1C-288.1,44.1-240.7,56.8-199.2,79.1z"/>
		<path class="st113" d="M-185.1,52.9L-185.1,52.9l-14.1,26.2c-41.4-22.4-88.9-35.1-139.3-35.1V14.3
			C-283,14.3-230.8,28.3-185.1,52.9z"/>
		<path class="st114" d="M-338.5,212.2v29.2c-17.5,0-33.9,4.7-48,12.8l-14.6-25.3C-382.7,218.3-361.3,212.2-338.5,212.2z"/>
		<path class="st115" d="M-338.5,183.2v29c-22.8,0-44.2,6.1-62.6,16.7l-14.5-25.1C-392.9,190.7-366.6,183.2-338.5,183.2z"/>
		<path class="st116" d="M-338.5,157.7v25.5c-28.1,0-54.4,7.5-77.1,20.6l-12.7-22.2C-401.9,166.4-371.2,157.7-338.5,157.7z"/>
		<path class="st117" d="M-338.5,129v28.7c-32.7,0-63.4,8.7-89.8,24l-14.3-24.9C-411.9,139.1-376.4,129-338.5,129z"/>
		<path class="st118" d="M-338.5,100v29c-37.9,0-73.4,10.1-104.1,27.8l-14.5-25.2C-422.2,111.5-381.7,100-338.5,100z"/>
		<path class="st119" d="M-338.5,72.9V100c-43.2,0-83.7,11.5-118.6,31.6l-13.5-23.5C-431.7,85.7-386.6,72.9-338.5,72.9z"/>
		<path class="st120" d="M-338.5,44.1v28.8c-48.1,0-93.2,12.8-132.1,35.2l-14.3-25C-441.8,58.3-391.8,44.1-338.5,44.1z"/>
		<path class="st121" d="M-338.5,14.3v29.8c-53.3,0-103.3,14.2-146.4,39l-14.8-25.8l0,0C-452.3,30-397.2,14.3-338.5,14.3z"/>
	</g>
</g>
<g>
</g>
<g>
</g>
<g>
</g>
<g>
</g>
<g>
</g>
</svg>
