<?xml version="1.0" encoding="utf-8"?>
<!-- Generator: Adobe Illustrator 21.0.0, SVG Export Plug-In . SVG Version: 6.00 Build 0)  -->
<svg version="1.1" id="Layer_1" xmlns="http://www.w3.org/2000/svg" xmlns:xlink="http://www.w3.org/1999/xlink" x="0px" y="0px"
	 viewBox="0 0 3300 1170" style="enable-background:new 0 0 3300 1170;" xml:space="preserve">
<style type="text/css">
	.st0{display:none;}
	.st1{display:inline;fill:none;}
	.st2{display:inline;}
	.st3{fill:#424242;}
	.st4{fill:#0077BA;}
	.st5{fill:#FFFFFF;}
	.st6{fill:#E31F79;}
	.st7{fill:#C2D21D;}
	.st8{display:inline;fill-rule:evenodd;clip-rule:evenodd;fill:#0077BA;}
	.st9{display:inline;fill-rule:evenodd;clip-rule:evenodd;fill:#C2D21D;}
	.st10{fill-rule:evenodd;clip-rule:evenodd;fill:#2B3F52;}
	.st11{display:inline;fill-rule:evenodd;clip-rule:evenodd;fill:#E31F79;}
</style>
<g id="text-color_1_" class="st0">
	<line class="st1" x1="1286.4" y1="269.7" x2="1111.8" y2="1083.2"/>
	<g class="st2">
		<path class="st3" d="M1542,564.1c0,3.4-0.5,8.5-1.4,15.4c-0.9,6.9-2,14.2-3.1,22.1c-1.2,7.8-2.5,15.5-3.9,23.2
			c-1.4,7.7-2.8,14.1-4.1,19.3L1483.1,863h-64.8l48.8-234.2c1-4.2,2.1-9,3.1-14.4c1-5.5,2-10.9,2.7-16.4c0.8-5.5,1.4-10.5,2-15
			c0.5-4.5,0.8-8.1,0.8-10.7c0-20.3-4.6-36-13.9-47.2c-9.2-11.2-23.5-16.8-42.7-16.8c-16.7,0-33.3,4.9-50,14.6
			c-16.7,9.8-32.1,22.4-46.4,37.9c-14.3,15.5-26.7,32.8-37.3,51.9c-10.5,19.1-17.9,38.1-22.1,56.8L1221.6,863h-64.8l126.4-591.6h64
			l-60.9,285.7h1.6c9.6-14.8,20.2-28.6,31.6-41.2c11.4-12.6,23.6-23.5,36.5-32.8c12.9-9.2,26.4-16.5,40.6-21.7
			c14.2-5.2,28.8-7.8,43.9-7.8c33.3,0,58.5,9.8,75.7,29.5C1533.4,502.7,1542,529.7,1542,564.1z"/>
		<path class="st3" d="M1777.3,648l141.3,215h-74.2l-131.1-211.1h-1.6L1666.9,863h-64.8l126.4-591.6h64l-76.9,361.4h1.6l199-169.4
			h83.1L1777.3,648z"/>
		<path class="st4" d="M2257.7,533.6c-11.7-7.5-24.8-13.7-39.4-18.3c-14.6-4.7-29.1-7-43.7-7c-24.5,0-43.4,5.6-56.8,16.8
			c-13.4,11.2-20.1,26-20.1,44.5c0,7.5,1.2,14.4,3.7,20.7c2.5,6.2,6.1,12.2,10.9,17.8c4.8,5.6,10.9,11,18.3,16.2
			c7.4,5.2,15.9,10.8,25.6,16.8c29.1,16.9,50.1,34.3,63,52.1c12.9,17.8,19.3,37.9,19.3,60.3c0,15.1-2.8,29.9-8.4,44.3
			c-5.6,14.4-14.5,27.2-26.7,38.2c-12.2,11.1-28,20-47.4,26.7c-19.4,6.8-43,10.1-70.8,10.1c-7.8,0-16.4-0.5-25.8-1.6
			c-9.4-1-18.8-2.6-28.3-4.7c-9.5-2.1-18.6-4.6-27.3-7.6c-8.7-3-16.3-6.4-22.8-10.3l12.9-60.9c5.2,3.6,11.6,7.3,19.3,10.9
			c7.7,3.6,16,6.9,25,9.8c9,2.9,18.3,5.2,28.1,7c9.8,1.8,19.4,2.7,29.1,2.7c26,0,45.5-5.2,58.3-15.6c12.9-10.4,19.3-24.8,19.3-43.3
			c0-6.8-1-13-2.9-18.7c-2-5.7-5.4-11.4-10.3-17.2c-4.9-5.7-11.5-11.5-19.5-17.4c-8.1-5.9-18.2-12.4-30.4-19.7
			c-26.5-16.1-46.1-33-58.7-50.5c-12.6-17.6-18.9-37.4-18.9-59.5c0-16.1,3-31.5,9-46.2c6-14.7,14.9-27.7,26.7-39
			c11.8-11.3,26.7-20.4,44.7-27.1c18-6.8,38.9-10.1,62.8-10.1c18.7,0,36.5,1.8,53.3,5.5c16.8,3.6,31,8.3,42.7,14L2257.7,533.6z"/>
		<path class="st4" d="M2671.8,611.3c0,35.4-5,68.9-15,100.7c-10,31.7-24.5,59.5-43.3,83.3c-18.9,23.8-41.8,42.7-68.7,56.6
			c-26.9,13.9-57.3,20.9-91.1,20.9c-22.9,0-43.5-3.6-61.9-10.9s-34-17.8-46.8-31.4c-12.9-13.7-22.8-30.2-29.7-49.6
			c-6.9-19.4-10.3-41.3-10.3-65.8c0-36.7,5.3-71,15.8-102.8c10.5-31.9,25.4-59.6,44.5-83.1c19.1-23.5,42-42,68.7-55.4
			c26.7-13.4,56.1-20.1,88.4-20.1c22.6,0,43.1,3.6,61.5,10.9c18.3,7.3,34,17.8,47,31.4c13,13.7,23.1,30.2,30.2,49.6
			C2668.2,564.9,2671.8,586.8,2671.8,611.3z M2606.2,614.4c0-16.9-2.1-31.9-6.2-45.1c-4.2-13.1-10-24.2-17.6-33.2
			c-7.5-9-16.7-15.9-27.3-20.7c-10.7-4.8-22.6-7.2-35.9-7.2c-22.9,0-43.6,5.9-62.1,17.6c-18.5,11.7-34.1,27.1-46.8,46.2
			c-12.8,19.1-22.6,40.9-29.5,65.2c-6.9,24.3-10.3,49.2-10.3,74.7c0,16.1,2,30.8,6,43.9c4,13.1,9.8,24.3,17.2,33.6
			c7.4,9.2,16.5,16.3,27.3,21.3c10.8,4.9,23,7.4,36.5,7.4c23.2,0,44-5.8,62.4-17.4c18.5-11.6,34.1-26.9,46.8-46.1
			c12.7-19.1,22.5-40.9,29.3-65.4C2602.9,664.9,2606.2,639.9,2606.2,614.4z"/>
		<path class="st4" d="M3009.8,326.8c-2.6-1.3-5.7-2.5-9.4-3.7c-3.6-1.2-7.5-2.3-11.7-3.3c-4.2-1-8.5-1.9-13.1-2.5
			c-4.6-0.6-8.9-1-13.1-1c-21.3,0-37.8,7-49.4,20.9c-11.6,13.9-20.4,34.7-26.3,62.2l-14.4,64h94.4l-12.9,54.2h-94.4l-102.2,478.1
			h-64.8l103-478.1h-68.7l12.1-54.2h68.7l16-74.2c4.9-22.9,11.8-42.4,20.7-58.5c8.8-16.1,19.4-29.3,31.6-39.4
			c12.2-10.1,26.1-17.6,41.6-22.2c15.5-4.7,32.5-7,50.9-7c9.6,0,19.1,0.8,28.3,2.3c9.2,1.6,17.1,3.4,23.6,5.5L3009.8,326.8z"/>
		<path class="st4" d="M3213.5,517.6h-100.7l-44.9,211.9c-1.6,8.1-3.1,16.8-4.7,26.1c-1.6,9.4-2.3,16.9-2.3,22.6
			c0,13.3,2.9,22.8,8.8,28.7s15.2,8.8,27.9,8.8c3.1,0,7.2-0.5,12.1-1.6c4.9-1,10-2.3,15.2-3.9c5.2-1.6,10.3-3.3,15.4-5.3
			c5.1-2,9.6-3.7,13.5-5.3l-12.1,56.2c-9.1,3.9-19.5,7.2-31,10c-11.6,2.7-22.6,4.1-33,4.1c-14.8,0-27.5-1.9-37.9-5.7
			c-10.4-3.8-18.9-9.2-25.6-16.2c-6.6-7-11.5-15.5-14.4-25.6c-3-10-4.5-21.3-4.5-33.8c0-7.5,0.7-16.3,2.1-26.3
			c1.4-10,3.2-19.2,5.3-27.5l46.1-217.4h-66.3l12.1-54.2h65.6l20.7-97.6c1-0.5,5-1.8,11.9-3.7c6.9-2,14.4-4.2,22.6-6.6
			c8.2-2.5,15.7-4.7,22.6-6.8c6.9-2.1,10.7-3.2,11.5-3.5l-24.6,118.3h100.7L3213.5,517.6z"/>
	</g>
</g>
<g id="text-white">
	<line class="st5" x1="1285.5" y1="269.6" x2="1110.9" y2="1083"/>
	<g>
		<path class="st5" d="M1541.1,563.9c0,3.4-0.5,8.5-1.4,15.4c-0.9,6.9-2,14.2-3.1,22.1c-1.2,7.8-2.5,15.5-3.9,23.2
			c-1.4,7.7-2.8,14.1-4.1,19.3l-46.4,218.9h-64.8l48.8-234.2c1-4.2,2.1-9,3.1-14.4c1-5.5,2-10.9,2.7-16.4c0.8-5.5,1.4-10.5,2-15
			c0.5-4.5,0.8-8.1,0.8-10.7c0-20.3-4.6-36-13.9-47.2c-9.2-11.2-23.5-16.8-42.7-16.8c-16.7,0-33.3,4.9-50,14.6
			c-16.7,9.8-32.1,22.4-46.4,37.9c-14.3,15.5-26.7,32.8-37.3,51.9c-10.5,19.1-17.9,38.1-22.1,56.8l-41.8,193.6h-64.8l126.4-591.6h64
			l-60.9,285.7h1.6c9.6-14.8,20.2-28.6,31.6-41.2c11.4-12.6,23.6-23.5,36.5-32.8c12.9-9.2,26.4-16.5,40.6-21.7
			c14.2-5.2,28.8-7.8,43.9-7.8c33.3,0,58.5,9.8,75.7,29.5C1532.5,502.6,1541.1,529.6,1541.1,563.9z"/>
		<path class="st5" d="M1776.4,647.8l141.3,215h-74.2l-131.1-211.1h-1.6L1666,862.9h-64.8l126.4-591.6h64l-76.9,361.4h1.6l199-169.4
			h83.1L1776.4,647.8z"/>
		<path class="st5" d="M2256.8,533.5c-11.7-7.5-24.8-13.7-39.4-18.3c-14.6-4.7-29.1-7-43.7-7c-24.5,0-43.4,5.6-56.8,16.8
			c-13.4,11.2-20.1,26-20.1,44.5c0,7.5,1.2,14.4,3.7,20.7c2.5,6.2,6.1,12.2,10.9,17.8c4.8,5.6,10.9,11,18.3,16.2
			c7.4,5.2,15.9,10.8,25.6,16.8c29.1,16.9,50.1,34.3,63,52.1c12.9,17.8,19.3,37.9,19.3,60.3c0,15.1-2.8,29.9-8.4,44.3
			c-5.6,14.4-14.5,27.2-26.7,38.2c-12.2,11.1-28,20-47.4,26.7c-19.4,6.8-43,10.1-70.8,10.1c-7.8,0-16.4-0.5-25.8-1.6
			c-9.4-1-18.8-2.6-28.3-4.7c-9.5-2.1-18.6-4.6-27.3-7.6c-8.7-3-16.3-6.4-22.8-10.3l12.9-60.9c5.2,3.6,11.6,7.3,19.3,10.9
			c7.7,3.6,16,6.9,25,9.8c9,2.9,18.3,5.2,28.1,7c9.8,1.8,19.4,2.7,29.1,2.7c26,0,45.5-5.2,58.3-15.6c12.9-10.4,19.3-24.8,19.3-43.3
			c0-6.8-1-13-2.9-18.7c-2-5.7-5.4-11.4-10.3-17.2c-4.9-5.7-11.5-11.5-19.5-17.4c-8.1-5.9-18.2-12.4-30.4-19.7
			c-26.5-16.1-46.1-33-58.7-50.5c-12.6-17.6-18.9-37.4-18.9-59.5c0-16.1,3-31.5,9-46.2c6-14.7,14.9-27.7,26.7-39
			c11.8-11.3,26.7-20.4,44.7-27.1c18-6.8,38.9-10.1,62.8-10.1c18.7,0,36.5,1.8,53.3,5.5c16.8,3.6,31,8.3,42.7,14L2256.8,533.5z"/>
		<path class="st5" d="M2670.9,611.1c0,35.4-5,68.9-15,100.7c-10,31.7-24.5,59.5-43.3,83.3c-18.9,23.8-41.8,42.7-68.7,56.6
			c-26.9,13.9-57.3,20.9-91.1,20.9c-22.9,0-43.5-3.6-61.9-10.9c-18.3-7.3-34-17.8-46.8-31.4c-12.9-13.7-22.8-30.2-29.7-49.6
			c-6.9-19.4-10.3-41.3-10.3-65.8c0-36.7,5.3-71,15.8-102.8c10.5-31.9,25.4-59.6,44.5-83.1c19.1-23.5,42-42,68.7-55.4
			c26.7-13.4,56.1-20.1,88.4-20.1c22.6,0,43.1,3.6,61.5,10.9c18.3,7.3,34,17.8,47,31.4c13,13.7,23.1,30.2,30.2,49.6
			C2667.3,564.8,2670.9,586.7,2670.9,611.1z M2605.3,614.3c0-16.9-2.1-31.9-6.2-45.1c-4.2-13.1-10-24.2-17.6-33.2
			c-7.5-9-16.7-15.9-27.3-20.7c-10.7-4.8-22.6-7.2-35.9-7.2c-22.9,0-43.6,5.9-62.1,17.6c-18.5,11.7-34.1,27.1-46.8,46.2
			c-12.8,19.1-22.6,40.9-29.5,65.2c-6.9,24.3-10.3,49.2-10.3,74.7c0,16.1,2,30.8,6,43.9c4,13.1,9.8,24.3,17.2,33.6
			c7.4,9.2,16.5,16.3,27.3,21.3c10.8,4.9,23,7.4,36.5,7.4c23.2,0,44-5.8,62.4-17.4c18.5-11.6,34.1-26.9,46.8-46.1
			c12.7-19.1,22.5-40.9,29.3-65.4C2602,664.7,2605.3,639.8,2605.3,614.3z"/>
		<path class="st5" d="M3008.9,326.6c-2.6-1.3-5.7-2.5-9.4-3.7c-3.6-1.2-7.5-2.3-11.7-3.3c-4.2-1-8.5-1.9-13.1-2.5
			c-4.6-0.6-8.9-1-13.1-1c-21.3,0-37.8,7-49.4,20.9c-11.6,13.9-20.4,34.7-26.3,62.2l-14.4,64h94.4l-12.9,54.2h-94.4l-102.2,478.1
			h-64.8l103-478.1h-68.7l12.1-54.2h68.7l16-74.2c4.9-22.9,11.8-42.4,20.7-58.5c8.8-16.1,19.4-29.3,31.6-39.4
			c12.2-10.1,26.1-17.6,41.6-22.2c15.5-4.7,32.5-7,50.9-7c9.6,0,19.1,0.8,28.3,2.3c9.2,1.6,17.1,3.4,23.6,5.5L3008.9,326.6z"/>
		<path class="st5" d="M3212.6,517.5h-100.7L3067,729.4c-1.6,8.1-3.1,16.8-4.7,26.1c-1.6,9.4-2.3,16.9-2.3,22.6
			c0,13.3,2.9,22.8,8.8,28.7s15.2,8.8,27.9,8.8c3.1,0,7.2-0.5,12.1-1.6c4.9-1,10-2.3,15.2-3.9c5.2-1.6,10.3-3.3,15.4-5.3
			c5.1-2,9.6-3.7,13.5-5.3l-12.1,56.2c-9.1,3.9-19.5,7.2-31,10c-11.6,2.7-22.6,4.1-33,4.1c-14.8,0-27.5-1.9-37.9-5.7
			c-10.4-3.8-18.9-9.2-25.6-16.2s-11.5-15.5-14.4-25.6c-3-10-4.5-21.3-4.5-33.8c0-7.5,0.7-16.3,2.1-26.3c1.4-10,3.2-19.2,5.3-27.5
			l46.1-217.4h-66.3l12.1-54.2h65.6l20.7-97.6c1-0.5,5-1.8,11.9-3.7c6.9-2,14.4-4.2,22.6-6.6c8.2-2.5,15.7-4.7,22.6-6.8
			c6.9-2.1,10.7-3.2,11.5-3.5L3124,463.2h100.7L3212.6,517.5z"/>
	</g>
</g>
<g>
	<g>
		<path class="st6" d="M430.9,1071.8c270.2,60.5,538.2-109.4,598.8-379.5C1090.2,422.1,920.3,154,650.2,93.5
			c-100.1-22.4-199.8-13.2-288.8,21c-31.5,13-61.6,28.9-89.9,47.8c94.4-52.1,208.3-69.3,320.7-39.4
			c231,61.7,368.3,298.9,306.6,529.9c-61.7,231-298.9,368.3-529.9,306.6C166.1,905.4,35.6,715.9,48.5,514
			C35.2,602.9,45.8,691,76.1,770.9C135.8,918,264.2,1034.4,430.9,1071.8z"/>
	</g>
	<g>
		<path class="st7" d="M595.8,282.4c-162-41.5-327,56.1-368.5,218.1c-41.5,162,56.1,326.9,218.1,368.5c60,15.4,120.4,11.7,174.8-7.3
			c19.2-7.2,37.7-16.4,55.1-27.2c-58,29.7-127,38-194.4,17.8C342.5,810.8,264,665,305.5,526.7c41.5-138.3,187.3-216.8,325.6-175.3
			c121.5,36.4,196.8,153.2,185.3,274.9c9.6-53.4,4.9-106.8-11.9-155.6C771.1,380.7,695.7,308,595.8,282.4z"/>
	</g>
	<g>
		<path class="st4" d="M540.7,801.9c100.2,25.7,202.4-34.7,228.1-135c25.7-100.2-34.7-202.4-135-228.1c-37.1-9.5-74.5-7.2-108.2,4.6
			c-11.9,4.5-23.4,10.1-34.1,16.8c35.9-18.4,78.6-23.5,120.3-11c85.6,25.6,134.2,115.9,108.5,201.5
			C694.6,736.4,604.4,785,518.8,759.3c-75.2-22.5-121.8-94.9-114.7-170.1c-6,33.1-3,66.1,7.4,96.3
			C432.1,741.1,478.8,786.1,540.7,801.9z"/>
	</g>
</g>
<g id="logo" class="st0">
	<path class="st8" d="M516.4,912c109.8,167.5,334,215,502.2,106.9c1-0.5,2-1,3-1.7c12.6-8.3,16.2-25.2,7.9-37.9
		c-8.3-12.6-25.3-16.2-37.9-7.9c-0.8,0.5-1.5,1-2.2,1.6c-151.4,97.4-353.4,54.8-452.2-96.1c-13.2-20-23.8-41-32-62.5
		c-11,1-22.1,1.5-33.3,1.5C481.6,849.2,496.4,881.5,516.4,912L516.4,912z M498.4,795.7c-33.6-106.4-10.4-223.3,60.8-308.8
		c-5.9-3.1-11.9-6-18-8.7c-73.8,88.5-101.3,207.3-74.6,318.8C477.3,797.1,487.9,796.6,498.4,795.7L498.4,795.7z M580.8,463.5
		c15.3-15.1,32.2-28.8,50.8-41l-0.1-0.2c4.2-2.8,5.4-8.4,2.6-12.6c-2.8-4.2-8.4-5.4-12.6-2.6l-0.1-0.2
		c-21.2,13.9-40.4,29.6-57.7,46.8C569.6,456.8,575.3,460.1,580.8,463.5L580.8,463.5z"/>
	<path class="st9" d="M829.3,525.4c40.8-196.1-84.2-388.2-279.5-430.7c-1.1-0.4-2.2-0.7-3.3-0.9c-14.8-3.1-29.3,6.4-32.4,21.2
		c-3.1,14.8,6.4,29.3,21.2,32.3c0.9,0.2,1.8,0.4,2.7,0.4c176,38.1,288.6,211.1,251.9,387.7c-9.5,45.9-28.3,87.6-53.9,123.5
		c3.7,11,6.9,22.3,9.5,33.7C786.3,646.7,815.9,589.8,829.3,525.4L829.3,525.4z M720.6,679.1c-75.2,89.9-196.2,136.5-318.9,111l0,0.1
		c-4.9-1-9.8,2.2-10.8,7.1c-1.1,4.9,2.1,9.8,7.1,10.8l0,0.2c124.3,25.9,247-14.9,331-97.9C726.6,699.7,723.8,689.3,720.6,679.1
		L720.6,679.1z"/>
	<path class="st10" d="M464.4,417.3C268.3,376.5,76.1,501.5,33.6,696.8c-0.4,1.1-0.7,2.2-0.9,3.3c-3.1,14.8,6.4,29.3,21.2,32.4
		c14.8,3.1,29.3-6.4,32.4-21.2c0.2-0.9,0.3-1.8,0.4-2.7c38.1-175.9,211.1-288.6,387.7-251.8C651.9,493.6,765.9,667.5,729,845l0.2,0
		c-1,4.9,2.1,9.7,7.1,10.8c4.9,1,9.7-2.1,10.8-7.1l0.2,0C788.2,651.6,661.6,458.4,464.4,417.3L464.4,417.3z"/>
	<path class="st11" d="M464.4,417.3C268.3,376.5,76.1,501.5,33.6,696.8c-0.4,1.1-0.7,2.2-0.9,3.3c-3.1,14.8,6.4,29.3,21.2,32.4
		c14.8,3.1,29.3-6.4,32.4-21.2c0.2-0.9,0.3-1.8,0.4-2.7c38.1-175.9,211.1-288.6,387.7-251.8C651.9,493.6,765.9,667.5,729,845l0.2,0
		c-1,4.9,2.1,9.7,7.1,10.8c4.9,1,9.7-2.1,10.8-7.1l0.2,0C788.2,651.6,661.6,458.4,464.4,417.3L464.4,417.3z"/>
</g>
<g>
</g>
<g>
</g>
<g>
</g>
<g>
</g>
<g>
</g>
</svg>
