<?xml version="1.0" encoding="utf-8"?>
<!-- Generator: Adobe Illustrator 21.0.0, SVG Export Plug-In . SVG Version: 6.00 Build 0)  -->
<svg version="1.1" id="logo-hksoft" xmlns="http://www.w3.org/2000/svg" xmlns:xlink="http://www.w3.org/1999/xlink" x="0px"
	 y="0px" viewBox="0 0 1800 700" style="enable-background:new 0 0 1800 700;" xml:space="preserve">
<style type="text/css">
	.st0{fill:#FFFFFF;}
	.st1{fill:none;}
	.st2{fill:#E31F79;}
	.st3{fill:#36B9E6;}
	.st4{fill:#FEF135;}
</style>
<g id="text-white">
	<path class="st0" d="M831.6,339.8c0,1.9-0.3,4.7-0.8,8.6c-0.5,3.8-1.1,7.9-1.7,12.3c-0.7,4.3-1.4,8.6-2.2,12.9s-1.6,7.9-2.3,10.7
		L798.8,506h-36l27.1-130.2c0.6-2.3,1.2-5,1.7-8c0.6-3,1.1-6.1,1.5-9.1s0.8-5.8,1.1-8.4c0.3-2.5,0.4-4.5,0.4-6
		c0-11.3-2.6-20-7.7-26.3c-5.1-6.2-13.1-9.3-23.8-9.3c-9.3,0-18.5,2.7-27.8,8.1s-17.9,12.4-25.8,21.1c-8,8.6-14.9,18.2-20.7,28.9
		c-5.9,10.6-10,21.2-12.3,31.6l-23.2,107.7h-36L687.6,177h35.6l-33.9,159h0.9c5.4-8.2,11.2-15.9,17.6-22.9
		c6.4-7,13.1-13.1,20.3-18.2s14.7-9.2,22.6-12c7.9-2.9,16-4.3,24.4-4.3c18.5,0,32.6,5.5,42.1,16.4
		C826.8,305.6,831.6,320.6,831.6,339.8z"/>
	<path class="st0" d="M962.5,386.4l78.6,119.6h-41.2l-73-117.4H926L901,506h-36l70.3-329.1h35.6l-42.8,201h0.9l110.7-94.2h46.2
		L962.5,386.4z"/>
	<g>
		<path class="st0" d="M1229.7,318.8c-6.5-4.2-13.8-7.6-21.9-10.2s-16.2-3.9-24.3-3.9c-13.6,0-24.1,3.1-31.6,9.3
			c-7.5,6.2-11.2,14.5-11.2,24.7c0,4.2,0.7,8,2.1,11.5s3.4,6.8,6.1,9.9s6.1,6.1,10.2,9s8.9,6,14.2,9.3c16.2,9.4,27.9,19.1,35.1,29
			s10.7,21.1,10.7,33.5c0,8.4-1.6,16.6-4.7,24.6s-8.1,15.1-14.9,21.3c-6.8,6.2-15.6,11.1-26.4,14.9s-23.9,5.6-39.4,5.6
			c-4.3,0-9.1-0.3-14.3-0.9c-5.2-0.6-10.5-1.4-15.7-2.6c-5.3-1.2-10.3-2.6-15.2-4.2c-4.9-1.7-9.1-3.6-12.7-5.8l7.2-33.9
			c2.9,2,6.5,4.1,10.7,6.1c4.3,2,8.9,3.8,13.9,5.4s10.2,2.9,15.6,3.9s10.8,1.5,16.2,1.5c14.5,0,25.3-2.9,32.5-8.7
			c7.2-5.8,10.7-13.8,10.7-24.1c0-3.8-0.5-7.2-1.6-10.4s-3-6.4-5.8-9.6s-6.4-6.4-10.9-9.7s-10.1-6.9-16.9-11
			c-14.8-9-25.7-18.3-32.7-28.1c-7-9.8-10.5-20.8-10.5-33.1c0-9,1.7-17.5,5-25.7s8.3-15.4,14.9-21.7s14.9-11.3,24.9-15.1
			c10-3.8,21.6-5.6,34.9-5.6c10.4,0,20.3,1,29.6,3c9.3,2,17.3,4.6,23.8,7.8L1229.7,318.8z"/>
		<path class="st0" d="M1330.6,506.3c-9.5-0.7-18.3-2.6-26.3-5.8c-10.2-4-18.9-9.9-26-17.5c-7.2-7.6-12.7-16.8-16.5-27.6
			c-3.8-10.8-5.8-23-5.8-36.6c0-20.4,2.9-39.5,8.8-57.2s14.1-33.1,24.7-46.2s23.4-23.4,38.2-30.8c14.8-7.5,31.2-11.2,49.2-11.2
			c12.6,0,24,2,34.2,6.1s18.9,9.9,26.2,17.5c7.2,7.6,12.8,16.8,16.8,27.6c4,10.8,6,23,6,36.6c0,19.7-2.8,38.4-8.4,56
			c-5.6,17.7-13.6,33.1-24.1,46.3c-10.5,13.2-23.2,23.7-38.2,31.5c-15,7.7-31.9,11.6-50.7,11.6
			C1335.9,506.4,1333.2,506.4,1330.6,506.3 M1423.6,362.8c0-9.4-1.2-17.8-3.5-25.1c-2.3-7.3-5.6-13.5-9.8-18.5
			c-4.2-5-9.3-8.8-15.2-11.5c-5.9-2.7-12.6-4-20-4c-12.7,0-24.2,3.3-34.5,9.8s-19,15.1-26,25.7c-7.1,10.6-12.6,22.7-16.4,36.3
			c-3.8,13.5-5.8,27.4-5.8,41.6c0,9,1.1,17.1,3.4,24.4c2.2,7.3,5.4,13.5,9.6,18.7c4.1,5.1,9.2,9.1,15.2,11.8
			c6,2.8,12.8,4.1,20.3,4.1c12.9,0,24.5-3.2,34.7-9.7c10.3-6.4,19-15,26-25.6c7.1-10.6,12.5-22.8,16.3-36.4
			C1421.7,390.8,1423.6,376.9,1423.6,362.8z"/>
		<path class="st0" d="M1648,211.8c-1.4-0.7-3.2-1.4-5.2-2.1c-2-0.7-4.2-1.3-6.5-1.8c-2.3-0.6-4.7-1-7.3-1.4c-2.5-0.4-5-0.5-7.3-0.5
			c-11.9,0-21,3.9-27.5,11.6c-6.4,7.7-11.3,19.3-14.7,34.6l-8,35.6h52.5l-7.2,30.2h-52.5l-56.9,266h-36l57.3-265.9h-38.2l6.7-30.2
			h38.2l8.9-41.2c2.7-12.7,6.6-23.6,11.5-32.6c4.9-9,10.8-16.3,17.6-21.9c6.8-5.6,14.5-9.8,23.1-12.4c8.6-2.6,18.1-3.9,28.3-3.9
			c5.4,0,10.6,0.4,15.7,1.3c5.1,0.9,9.5,1.9,13.1,3L1648,211.8z"/>
		<path class="st0" d="M1761.4,309.9h-56l-25,117.9c-0.9,4.5-1.7,9.3-2.6,14.5s-1.3,9.4-1.3,12.6c0,7.4,1.6,12.7,4.9,16
			s8.4,4.9,15.5,4.9c1.7,0,4-0.3,6.7-0.9s5.6-1.3,8.5-2.2c2.9-0.9,5.8-1.8,8.6-2.9c2.8-1.1,5.3-2.1,7.5-2.9l-6.7,31.3
			c-5.1,2.2-10.8,4-17.3,5.5c-6.4,1.5-12.6,2.3-18.3,2.3c-8.2,0-15.3-1.1-21.1-3.1c-5.8-2.1-10.5-5.1-14.2-9s-6.4-8.6-8-14.2
			c-1.7-5.6-2.5-11.8-2.5-18.8c0-4.2,0.4-9.1,1.2-14.7c0.8-5.6,1.8-10.7,2.9-15.3l25.6-120.9h-36.9l6.7-30.2h36.5l11.5-54.3
			c0.6-0.3,2.8-1,6.6-2.1c3.8-1.1,8-2.3,12.6-3.7s8.8-2.6,12.6-3.8c3.8-1.2,6-1.8,6.4-2l-13.7,65.8h56L1761.4,309.9z"/>
	</g>
	<g>
		<path class="st0" d="M1229.7,322.8c-6.5-4.2-13.8-7.6-21.9-10.2s-16.2-3.9-24.3-3.9c-13.6,0-24.1,3.1-31.6,9.3
			c-7.5,6.2-11.2,14.5-11.2,24.7c0,4.2,0.7,8,2.1,11.5s3.4,6.8,6.1,9.9s6.1,6.1,10.2,9s8.9,6,14.2,9.3c16.2,9.4,27.9,19.1,35.1,29
			s10.7,21.1,10.7,33.5c0,8.4-1.6,16.6-4.7,24.6s-8.1,15.1-14.9,21.3c-6.8,6.2-15.6,11.1-26.4,14.9s-23.9,5.6-39.4,5.6
			c-4.3,0-9.1-0.3-14.3-0.9c-5.2-0.6-10.5-1.4-15.7-2.6c-5.3-1.2-10.3-2.6-15.2-4.2c-4.9-1.7-9.1-3.6-12.7-5.8l7.2-33.9
			c2.9,2,6.5,4.1,10.7,6.1c4.3,2,8.9,3.8,13.9,5.4s10.2,2.9,15.6,3.9s10.8,1.5,16.2,1.5c14.5,0,25.3-2.9,32.5-8.7
			c7.2-5.8,10.7-13.8,10.7-24.1c0-3.8-0.5-7.2-1.6-10.4s-3-6.4-5.8-9.6s-6.4-6.4-10.9-9.7s-10.1-6.9-16.9-11
			c-14.8-9-25.7-18.3-32.7-28.1c-7-9.8-10.5-20.8-10.5-33.1c0-9,1.7-17.5,5-25.7s8.3-15.4,14.9-21.7s14.9-11.3,24.9-15.1
			c10-3.8,21.6-5.6,34.9-5.6c10.4,0,20.3,1,29.6,3c9.3,2,17.3,4.6,23.8,7.8L1229.7,322.8z"/>
		<path class="st0" d="M1330.6,511.3c-9.5-0.7-18.3-2.6-26.3-5.8c-10.2-4-18.9-9.9-26-17.5c-7.2-7.6-12.7-16.8-16.5-27.6
			c-3.8-10.8-5.8-23-5.8-36.6c0-20.4,2.9-39.5,8.8-57.2s14.1-33.1,24.7-46.2s23.4-23.4,38.2-30.8c14.8-7.5,31.2-11.2,49.2-11.2
			c12.6,0,24,2,34.2,6.1s18.9,9.9,26.2,17.5c7.2,7.6,12.8,16.8,16.8,27.6c4,10.8,6,23,6,36.6c0,19.7-2.8,38.4-8.4,56
			c-5.6,17.7-13.6,33.1-24.1,46.3c-10.5,13.2-23.2,23.7-38.2,31.5c-15,7.7-31.9,11.6-50.7,11.6
			C1335.9,511.4,1333.2,511.4,1330.6,511.3 M1423.6,367.8c0-9.4-1.2-17.8-3.5-25.1c-2.3-7.3-5.6-13.5-9.8-18.5
			c-4.2-5-9.3-8.8-15.2-11.5c-5.9-2.7-12.6-4-20-4c-12.7,0-24.2,3.3-34.5,9.8s-19,15.1-26,25.7c-7.1,10.6-12.6,22.7-16.4,36.3
			c-3.8,13.5-5.8,27.4-5.8,41.6c0,9,1.1,17.1,3.4,24.4c2.2,7.3,5.4,13.5,9.6,18.7c4.1,5.1,9.2,9.1,15.2,11.8
			c6,2.8,12.8,4.1,20.3,4.1c12.9,0,24.5-3.2,34.7-9.7c10.3-6.4,19-15,26-25.6c7.1-10.6,12.5-22.8,16.3-36.4
			C1421.7,395.8,1423.6,381.9,1423.6,367.8z"/>
		<path class="st0" d="M1648,207.8c-1.4-0.7-3.2-1.4-5.2-2.1c-2-0.7-4.2-1.3-6.5-1.8c-2.3-0.6-4.7-1-7.3-1.4c-2.5-0.4-5-0.5-7.3-0.5
			c-11.9,0-21,3.9-27.5,11.6c-6.4,7.7-11.3,19.3-14.7,34.6l-8,35.6h52.5l-7.2,30.2h-52.5l-56.9,266h-36l57.3-265.9h-38.2l6.7-30.2
			h38.2l8.9-41.2c2.7-12.7,6.6-23.6,11.5-32.6c4.9-9,10.8-16.3,17.6-21.9c6.8-5.6,14.5-9.8,23.1-12.4c8.6-2.6,18.1-3.9,28.3-3.9
			c5.4,0,10.6,0.4,15.7,1.3c5.1,0.9,9.5,1.9,13.1,3L1648,207.8z"/>
		<path class="st0" d="M1761.4,313.9h-56l-25,117.9c-0.9,4.5-1.7,9.3-2.6,14.5s-1.3,9.4-1.3,12.6c0,7.4,1.6,12.7,4.9,16
			s8.4,4.9,15.5,4.9c1.7,0,4-0.3,6.7-0.9s5.6-1.3,8.5-2.2c2.9-0.9,5.8-1.8,8.6-2.9c2.8-1.1,5.3-2.1,7.5-2.9l-6.7,31.3
			c-5.1,2.2-10.8,4-17.3,5.5c-6.4,1.5-12.6,2.3-18.3,2.3c-8.2,0-15.3-1.1-21.1-3.1c-5.8-2.1-10.5-5.1-14.2-9s-6.4-8.6-8-14.2
			c-1.7-5.6-2.5-11.8-2.5-18.8c0-4.2,0.4-9.1,1.2-14.7c0.8-5.6,1.8-10.7,2.9-15.3l25.6-120.9h-36.9l6.7-30.2h36.5l11.5-54.3
			c0.6-0.3,2.8-1,6.6-2.1c3.8-1.1,8-2.3,12.6-3.7s8.8-2.6,12.6-3.8c3.8-1.2,6-1.8,6.4-2l-13.7,65.8h56L1761.4,313.9z"/>
	</g>
	<line class="st1" x1="687.7" y1="176.9" x2="590.2" y2="634.8"/>
	<line class="st1" x1="687.7" y1="176.9" x2="1768.1" y2="176.9"/>
	<line class="st1" x1="617.4" y1="506" x2="1768.1" y2="505.9"/>
	<path class="st0" d="M1768.1,505.9"/>
	<path class="st0" d="M1768.1,176.9"/>
</g>
<g id="logo">
	<path class="st2" d="M271.6,253.8C159,230.3,48.7,302.1,24.3,414.2c-0.2,0.6-0.4,1.2-0.5,1.9c-1.8,8.5,3.7,16.8,12.2,18.6
		c8.5,1.8,16.8-3.7,18.6-12.2c0.1-0.5,0.2-1,0.2-1.6c21.9-101,121.2-165.7,222.6-144.6c101.9,21.2,167.3,121,146.1,222.9h0.1
		c-0.6,2.8,1.2,5.6,4.1,6.2c2.8,0.6,5.6-1.2,6.2-4h0.1C457.5,388.2,384.8,277.3,271.6,253.8L271.6,253.8z"/>
	<path class="st3" d="M301.4,537.7c63,96.2,191.7,123.4,288.2,61.4c0.6-0.3,1.2-0.6,1.7-1c7.3-4.8,9.3-14.5,4.5-21.7
		c-4.7-7.3-14.5-9.3-21.7-4.5c-0.4,0.3-0.9,0.6-1.3,0.9c-86.9,55.9-202.8,31.4-259.6-55.2c-7.5-11.5-13.7-23.5-18.4-35.9
		c-6.3,0.6-12.7,0.9-19.1,0.8C281.5,501.6,290,520.2,301.4,537.7L301.4,537.7z M291.1,470.9c-19.3-61.1-6-128.2,34.9-177.2
		c-3.4-1.8-6.8-3.4-10.3-5c-42.4,50.8-58.2,119-42.8,183C279,471.7,285.1,471.5,291.1,470.9L291.1,470.9z M338.4,280.2
		c8.8-8.6,18.5-16.6,29.2-23.6v-0.1c2.4-1.6,3.1-4.8,1.5-7.2s-4.8-3.1-7.2-1.5l-0.1-0.1c-12.2,8-23.2,17-33.1,26.9
		C332,276.4,335.2,278.3,338.4,280.2L338.4,280.2z"/>
	<path class="st3" d="M301.2,537.2c62.6,96.4,191.2,124.1,288,62.5c0.6-0.3,1.1-0.6,1.7-1c7.3-4.7,9.3-14.5,4.6-21.8
		s-14.5-9.3-21.8-4.6c-0.4,0.3-0.9,0.6-1.3,0.9c-87.1,55.6-203,30.6-259.3-56.2c-14.7-22.6-23.9-47.1-28-72.1
		c-5.9-3-11.8-6.3-17.5-9.8C269.8,470.4,280.6,505.5,301.2,537.2L301.2,537.2z M283.4,430.7c-5.7-67.1,24.8-135,85.2-174.2l-0.1-0.1
		c2.4-1.5,3.1-4.8,1.5-7.3c-1.5-2.4-4.8-3.1-7.2-1.6l-0.1-0.1c-61.1,39.7-94.7,105.9-95.4,173.7C272.7,424.6,278,427.7,283.4,430.7
		L283.4,430.7z"/>
	<path class="st4" d="M481.1,315.8C504.5,203.3,432.7,93,320.6,68.6c-0.6-0.2-1.2-0.4-1.9-0.5c-8.5-1.8-16.8,3.7-18.6,12.2
		c-1.8,8.5,3.7,16.8,12.2,18.6c0.5,0.1,1,0.2,1.6,0.3c101,21.9,165.7,121.2,144.6,222.5c-5.5,26.4-16.2,50.3-30.9,70.9
		c2.1,6.3,3.9,12.8,5.5,19.3C456.4,385.4,473.4,352.8,481.1,315.8L481.1,315.8z M418.7,404c-43.2,51.6-112.6,78.4-183.1,63.7v0.1
		c-2.8-0.6-5.6,1.2-6.2,4.1c-0.6,2.8,1.2,5.6,4,6.2v0.1c71.3,14.8,141.8-8.5,190-56.2C422.1,415.9,420.5,409.9,418.7,404L418.7,404z
		"/>
</g>
</svg>
